<svg width="132" height="40" viewBox="0 0 132 40" fill="none" xmlns="http://www.w3.org/2000/svg">
<g clip-path="url(#clip0_14458_2624)">
<path d="M27.6568 14.2324L24.6092 17.28L24.4568 17.4324L23.4892 18.4L22.773 19.1238L21.8054 20.0914L21.653 20.2362L21.234 20.6628L21.0816 20.8076L19.6568 22.2324L19.5044 22.3771C19.088 22.7929 18.6163 23.1493 18.1025 23.4362C17.8573 23.5733 17.6027 23.693 17.3406 23.7943C16.7505 24.023 16.1285 24.1592 15.4968 24.1981C15.1141 24.2323 14.7291 24.2323 14.3463 24.1981C13.5106 24.1072 12.702 23.848 11.9692 23.4362C11.6374 23.2644 11.3299 23.0492 11.0549 22.7962L10.8797 22.6209L5.32539 17.0133L5.21111 16.899C5.11218 16.792 5.02531 16.6745 4.95206 16.5485C4.76147 16.2255 4.66146 15.857 4.66254 15.4819C4.65856 15.4235 4.65856 15.365 4.66254 15.3066C4.66254 15.2152 4.66254 15.1238 4.66254 15.04V14.9409C4.73701 14.6639 4.86658 14.4048 5.04349 14.179C5.09024 14.1196 5.14116 14.0636 5.19587 14.0114L5.29492 13.9124L11.2759 8.0076L14.8568 4.43426C15.2379 4.0526 15.7497 3.83002 16.2887 3.81163C16.8277 3.79324 17.3535 3.98041 17.7597 4.33521L27.6568 14.2324Z" fill="#005BAA"/>
<path d="M16.891 27.52C16.4091 27.5182 15.9334 27.4116 15.4968 27.2076L14.3615 26.08L14.0796 25.8057L14.0339 25.7524L13.5082 25.2267L10.8644 22.5524L11.0396 22.7276C11.3165 22.9839 11.6266 23.2017 11.9615 23.3752C12.6943 23.7871 13.503 24.0463 14.3387 24.1371C14.7214 24.1714 15.1064 24.1714 15.4891 24.1371C16.1209 24.0982 16.7428 23.962 17.3329 23.7333C17.595 23.6321 17.8496 23.5124 18.0948 23.3752C18.6086 23.0883 19.0804 22.732 19.4968 22.3162L19.6491 22.1714L21.0739 20.7467L21.2263 20.6019L21.6453 20.1752L21.7977 20.0305L22.7653 19.0629L23.4815 18.339L24.472 17.4248L24.6244 17.2724L30.7577 11.1771L33.272 8.38095L33.4091 8.25143C33.7804 7.88154 34.2831 7.67386 34.8072 7.67386C35.3313 7.67386 35.834 7.88154 36.2053 8.25143L37.592 9.63809H37.6377C37.3265 9.62511 37.016 9.67586 36.7251 9.78722C36.4343 9.89859 36.1692 10.0682 35.9463 10.2857L31.2606 14.8571L31.2148 14.9105L23.0777 23.0171L20.0682 25.9657L19.8853 26.1562C19.4757 26.5538 19.005 26.8831 18.491 27.1314C18.2052 27.2701 17.9032 27.3725 17.592 27.4362C17.4138 27.4735 17.2329 27.4965 17.051 27.5048L16.891 27.52Z" fill="#ED1C24"/>
<path d="M45.1045 19.939L44.9521 20.0914L38.3159 26.8266L31.3293 33.9047C31.1122 34.1239 30.8778 34.3252 30.6283 34.5066L30.5293 34.5752C29.3147 35.4431 27.8357 35.8608 26.3465 35.7565C24.8574 35.6522 23.4511 35.0325 22.3693 34.0038L22.1864 33.8971L20.9902 32.7009L17.615 29.3257L16.4874 28.1905L16.335 28.0305C16.5163 28.0608 16.6998 28.0761 16.8836 28.0762H17.0436C17.2589 28.067 17.4731 28.039 17.6836 27.9924C18.0404 27.9216 18.3863 27.8038 18.7121 27.6419C19.2736 27.3632 19.7877 26.9981 20.2359 26.56L20.4416 26.339L23.0321 23.7943L31.9388 15.0324L31.9845 14.9714L36.3578 10.7352C36.6419 10.4629 37.0104 10.2956 37.4025 10.261C37.7945 10.2263 38.1866 10.3264 38.514 10.5447L39.535 11.5733L45.0969 17.1428C45.1465 17.19 45.1924 17.2409 45.234 17.2952C45.5439 17.6736 45.7022 18.1536 45.6783 18.6421C45.6544 19.1306 45.4499 19.5927 45.1045 19.939Z" fill="#ED1C24"/>
<path d="M23.6033 12.5638C23.5245 12.6366 23.4211 12.6771 23.3138 12.6771C23.2065 12.6771 23.1031 12.6366 23.0243 12.5638C22.3984 11.934 21.6547 11.4336 20.8354 11.0912C20.0162 10.7487 19.1375 10.5711 18.2496 10.5682C16.4564 10.5625 14.7344 11.2694 13.4624 12.5333C12.1903 13.7973 11.4725 15.5148 11.4668 17.308C11.4611 19.1012 12.168 20.8232 13.4319 22.0952L15.489 24.1676C15.4912 24.1828 15.4912 24.1982 15.489 24.2133C15.1165 24.2477 14.7416 24.2477 14.369 24.2133L12.8452 22.6895C11.4307 21.2649 10.6401 19.3368 10.6473 17.3292C10.6544 15.3217 11.4587 13.3992 12.8833 11.9848C14.3079 10.5703 16.2361 9.77963 18.2436 9.78678C20.2511 9.79392 22.1736 10.5983 23.5881 12.0229C23.6571 12.0951 23.6969 12.1905 23.6997 12.2904C23.7025 12.3903 23.6682 12.4877 23.6033 12.5638Z" fill="#009EDB"/>
<path d="M26.7576 15.1543L26.1862 15.7181L25.1881 14.7124C25.1505 14.6749 25.1207 14.6303 25.1004 14.5813C25.0801 14.5323 25.0696 14.4797 25.0696 14.4267C25.0696 14.3736 25.0801 14.3211 25.1004 14.272C25.1207 14.223 25.1505 14.1785 25.1881 14.141C25.2256 14.1034 25.2701 14.0736 25.3192 14.0533C25.3682 14.033 25.4207 14.0225 25.4738 14.0225C25.5269 14.0225 25.5794 14.033 25.6285 14.0533C25.6775 14.0736 25.722 14.1034 25.7595 14.141L26.7576 15.1543Z" fill="#009EDB"/>
<path d="M18.133 23.4209C17.8881 23.5565 17.6334 23.6737 17.3711 23.7714L14.5673 20.9676C13.7171 20.1113 13.1925 18.9851 13.084 17.7833C12.9755 16.5815 13.2899 15.3795 13.973 14.3848C14.0345 14.2971 14.1279 14.2368 14.2332 14.2169C14.3385 14.197 14.4474 14.2189 14.5368 14.2781C14.5804 14.3085 14.6176 14.3473 14.6462 14.3921C14.6748 14.437 14.6943 14.487 14.7035 14.5394C14.7127 14.5918 14.7114 14.6455 14.6998 14.6974C14.6882 14.7493 14.6665 14.7984 14.6358 14.8419C14.06 15.6815 13.7952 16.6957 13.887 17.7096C13.9788 18.7235 14.4215 19.6736 15.1387 20.3962L18.133 23.4209Z" fill="#009EDB"/>
<path d="M25.0511 16.8381L24.6321 17.2571L24.4949 17.3943L21.3483 14.2171C20.7724 13.6387 20.0463 13.233 19.2518 13.0459C18.4574 12.8587 17.6265 12.8976 16.853 13.1581C16.8014 13.182 16.7452 13.1947 16.6883 13.1954C16.6314 13.1961 16.575 13.1847 16.5227 13.1621C16.4705 13.1394 16.4237 13.106 16.3853 13.0639C16.3469 13.0219 16.3178 12.9722 16.3 12.9182C16.2821 12.8641 16.2759 12.8069 16.2818 12.7502C16.2876 12.6936 16.3053 12.6389 16.3338 12.5896C16.3623 12.5403 16.4009 12.4976 16.447 12.4642C16.4932 12.4309 16.5459 12.4077 16.6016 12.3962C17.5136 12.0972 18.491 12.0586 19.4238 12.2847C20.3566 12.5108 21.2077 12.9927 21.8816 13.6762L25.0511 16.8381Z" fill="#009EDB"/>
<path d="M23.3673 18.5295L22.7959 19.1009L19.634 15.9162C19.2531 15.604 18.7696 15.4448 18.2777 15.4698C17.7858 15.4948 17.3209 15.7021 16.9736 16.0513C16.6263 16.4005 16.4216 16.8665 16.3993 17.3585C16.377 17.8505 16.5387 18.3332 16.853 18.7124L18.8873 20.7619C18.9631 20.8377 19.0057 20.9404 19.0057 21.0476C19.0057 21.1548 18.9631 21.2575 18.8873 21.3333C18.8115 21.4091 18.7088 21.4517 18.6016 21.4517C18.4944 21.4517 18.3917 21.4091 18.3159 21.3333L16.2435 19.2838C15.7599 18.7502 15.5009 18.0505 15.5203 17.3307C15.5398 16.6108 15.8362 15.9262 16.3479 15.4194C16.8595 14.9127 17.547 14.6229 18.267 14.6104C18.987 14.5979 19.6841 14.8637 20.213 15.3524L23.3673 18.5295Z" fill="#009EDB"/>
<path d="M21.6757 20.2133L21.2566 20.64L21.1195 20.7695L17.9424 17.6C17.8666 17.5242 17.824 17.4215 17.824 17.3143C17.824 17.2071 17.8666 17.1044 17.9424 17.0286C18.0181 16.9528 18.1209 16.9102 18.2281 16.9102C18.3352 16.9102 18.438 16.9528 18.5138 17.0286L21.6757 20.2133Z" fill="#009EDB"/>
<path fill-rule="evenodd" clip-rule="evenodd" d="M101.098 20.4705L96.3216 13.8001L95.8424 13.371H100.573L103.765 18.4077L104.02 18.2044L105.944 15.4113C106.185 15.1061 106.293 14.7205 106.244 14.3384C106.195 13.9563 105.992 13.6086 105.681 13.371H110.126L104.986 20.463V25.6126L105.89 26.6667H100.341L101.114 25.6277C101.114 23.9187 101.052 22.1796 101.114 20.4705H101.098ZM88.1366 13.371C88.4429 13.68 88.6335 14.0804 88.6776 14.5078C88.708 14.763 88.6735 15.0216 88.5771 15.2607L85.0295 25.2889C84.795 25.7927 84.4493 26.24 84.017 26.5989H87.8815C87.5977 26.3723 87.406 26.0547 87.3405 25.703C87.2707 25.4566 87.2707 25.1965 87.3405 24.9501L88.1134 22.5711H92.6194L93.3227 24.4081C93.3937 24.5919 93.4379 24.7845 93.4541 24.9802C93.5 25.2928 93.4573 25.6116 93.3306 25.9022C93.2039 26.1928 92.9981 26.4441 92.7353 26.629H98.8026C98.2044 26.1601 97.7123 25.5757 97.3572 24.9125L92.9208 13.3333L88.1366 13.371ZM92.0011 20.8997H88.7781L90.3239 16.5631L91.9856 20.8997H92.0011ZM75.8398 13.3785H82.6026C83.5839 13.3805 84.5244 13.7611 85.2182 14.4369C85.9121 15.1128 86.3028 16.0289 86.3048 16.9848V17.4289C86.2927 18.3756 85.8997 19.2799 85.2102 19.9472C84.5208 20.6146 83.59 20.9917 82.6181 20.9976L80.9255 21.0503C81.5594 20.7134 82.0693 20.1919 82.3839 19.5588C82.6985 18.9257 82.802 18.2126 82.6799 17.5193C82.5485 16.405 81.9611 15.336 80.9796 15.3134H80.3612V25.1835C80.3584 25.3422 80.4071 25.4976 80.5004 25.6277C80.6857 25.9108 80.8924 26.18 81.1187 26.4333L81.2964 26.6441H76.0408L76.2649 26.3505C76.4295 26.1392 76.5671 25.9091 76.6745 25.6653C76.7424 25.524 76.7768 25.3696 76.775 25.2136V14.5906C76.7518 14.0335 76.1876 13.7173 75.8398 13.3785Z" fill="#005BAA"/>
<path d="M116.324 13.3656C116.026 13.588 115.841 13.8262 115.768 14.0804C115.7 14.3347 115.665 14.7637 115.665 15.3675V22.0736C115.665 22.4762 115.681 22.7946 115.712 23.0277C115.754 23.2657 115.819 23.4535 115.908 23.5911C115.955 23.66 116.013 23.7318 116.081 23.806C116.154 23.8748 116.235 23.9433 116.324 24.012V24.0443H112.03V24.012C112.323 23.8002 112.507 23.557 112.58 23.2816C112.653 23.0008 112.689 22.5769 112.689 22.0101V15.5023C112.689 15.0574 112.674 14.7102 112.643 14.4613C112.622 14.2283 112.564 14.0297 112.47 13.8656C112.381 13.6962 112.234 13.5297 112.03 13.3656V13.3333H116.324V13.3656ZM121.741 13.3333C122.552 13.3333 123.296 13.4575 123.971 13.7064C124.63 13.9394 125.204 14.2891 125.69 14.7552C126.177 15.2213 126.553 15.778 126.82 16.4242C126.962 16.7579 127.072 17.1024 127.15 17.4574C127.229 17.8122 127.269 18.1755 127.269 18.5462C127.268 19.4996 127.082 20.3924 126.711 21.224C126.345 22.0554 125.742 22.7328 124.905 23.2572C124.068 23.7816 123 24.0443 121.702 24.0443H116.882V23.9808C117.196 23.7795 117.39 23.5489 117.463 23.2894C117.536 23.0298 117.573 22.5687 117.573 21.9066V14.9466C117.573 14.1203 117.342 13.5934 116.882 13.3656V13.3333H121.741ZM121.529 15.0413C121.304 15.0414 120.977 15.0871 120.548 15.1771V22.304C120.783 22.3517 121.111 22.3999 121.529 22.4476C122.367 22.4476 123.016 22.1106 123.477 21.4378C123.937 20.7599 124.167 19.8383 124.167 18.6732C124.167 18.239 124.133 17.8494 124.065 17.5052C123.997 17.1556 123.9 16.8372 123.774 16.5511C123.528 16.0057 123.212 15.6187 122.825 15.3909C122.443 15.1579 122.011 15.0413 121.529 15.0413Z" fill="#ED1C24"/>
<path fill-rule="evenodd" clip-rule="evenodd" d="M48.2207 13.3333H52.4503L56.0018 23.0057L59.0141 14.9954C59.0691 14.7619 59.0248 14.5171 58.8909 14.3145C58.7291 13.985 58.5519 13.6701 58.3824 13.348H61.5411C61.3562 13.9996 61.0788 14.7172 60.84 15.3762L56.7568 26.6667C55.531 26.4802 54.3839 25.9732 53.4441 25.2023C52.8128 24.5567 52.3555 23.7754 52.1113 22.9251L48.6984 14.2925C48.5627 13.9627 48.4031 13.6422 48.2207 13.3333ZM65.108 17.8803V24.7922C65.108 25.0705 65.1774 25.1217 65.3623 25.3487L66.1943 26.3811H62.2113L62.8816 25.4073C63.0459 25.218 63.1334 24.979 63.1281 24.7337V15.0613L62.011 13.3333H66.1404L72.8198 21.5413V15.0247C72.8271 14.7781 72.7425 14.5369 72.581 14.3438C72.3576 14.0143 72.1187 13.6994 71.8953 13.3773H75.8398L75.0694 14.3804C74.8845 14.6 74.8152 14.6513 74.8152 14.9368V26.6667C74.0082 26.6269 73.2197 26.4226 72.5032 26.0676C71.7867 25.7126 71.159 25.2152 70.6627 24.6092L65.108 17.8803Z" fill="#ED1C24"/>
<path fill-rule="evenodd" clip-rule="evenodd" d="M91.6724 29.5316C91.7485 29.4554 91.7868 29.4554 91.863 29.5316C91.8658 29.5339 91.8679 29.5368 91.8705 29.539C91.8454 29.5225 91.8256 29.5211 91.8016 29.5297C91.8177 29.5382 91.8347 29.5518 91.8547 29.5697C91.9038 29.614 91.9183 29.644 91.9039 29.6813C91.9219 29.6588 91.9235 29.643 91.9235 29.6227C91.9234 29.5942 91.9097 29.5729 91.8705 29.539C91.884 29.5479 91.8991 29.5602 91.916 29.5771C91.9303 29.5866 91.9422 29.599 91.9514 29.6134C91.9605 29.6278 91.9665 29.644 91.969 29.6608C91.9635 29.6969 91.9446 29.7293 91.916 29.752L91.7031 29.9659C91.7726 30.0306 91.8266 30.1103 91.8621 30.1984C91.8887 30.2645 91.9047 30.3341 91.9086 30.4049V30.5602C91.9157 30.6716 91.8982 30.7836 91.8574 30.8876C91.8166 30.9915 91.7534 31.0852 91.6724 31.162C91.4629 31.307 91.2104 31.3768 90.9562 31.3601C90.7917 31.3408 90.625 31.3408 90.4605 31.3601C90.427 31.3657 90.3969 31.3836 90.3759 31.4103C90.3547 31.437 90.3437 31.4711 90.3461 31.5051C90.3461 31.5219 90.3495 31.5391 90.3554 31.5554C90.3425 31.5498 90.3341 31.5426 90.3266 31.5358C90.3313 31.563 90.3457 31.5834 90.3861 31.6C90.3729 31.5869 90.3617 31.5725 90.3554 31.5554C90.3706 31.5619 90.3899 31.568 90.4149 31.573C90.577 31.587 90.7401 31.587 90.9023 31.573C91.1645 31.5548 91.4277 31.605 91.6649 31.7181C91.7165 31.7529 91.76 31.7974 91.7961 31.8474C91.772 31.8225 91.7467 31.7984 91.7179 31.7786C91.7143 31.7768 91.7104 31.7757 91.7068 31.7739C91.7655 31.819 91.8141 31.875 91.85 31.9395C91.8492 31.9377 91.849 31.9357 91.8481 31.9339C91.834 31.9032 91.8157 31.8746 91.7961 31.8474C91.837 31.8898 91.872 31.9384 91.8965 31.9925C91.9353 32.0783 91.9494 32.1733 91.9384 32.2669C91.9504 32.3694 91.9369 32.4733 91.8984 32.5691C91.8598 32.665 91.7977 32.75 91.7179 32.8156C91.6521 32.8419 91.5846 32.863 91.517 32.8826C91.4479 32.9082 91.3771 32.9276 91.305 32.9421C91.1851 32.9832 91.0603 33.0109 90.933 33.0211C90.6549 33.0481 90.3748 32.995 90.1257 32.8686C90.0512 32.8104 89.9921 32.7345 89.9536 32.6482C89.9182 32.5688 89.9019 32.4828 89.9043 32.3961C89.9028 32.3708 89.9025 32.3453 89.9043 32.3199C89.8983 32.2216 89.9192 32.1234 89.9648 32.0362C90.0019 31.9652 90.0547 31.9038 90.1182 31.8558C90.078 31.8313 90.0439 31.7974 90.0187 31.7572C89.993 31.7161 89.9773 31.6692 89.9731 31.6214V31.52C89.9731 31.3362 90.0706 31.2194 90.2708 31.1694C90.1754 31.1116 90.0947 31.0318 90.0392 30.9341C89.9813 30.8321 89.9536 30.7167 89.9555 30.6002C89.953 30.5616 89.9537 30.5228 89.9583 30.4839V30.4718C89.9563 30.3875 89.9681 30.3036 89.9936 30.2235C89.998 30.2095 90.0034 30.196 90.0085 30.1826C90.0126 30.1718 90.0159 30.1607 90.0206 30.15C90.0653 30.0474 90.1327 29.9561 90.2168 29.8822C90.4238 29.7306 90.6768 29.6547 90.933 29.6683C91.0951 29.6653 91.2561 29.6971 91.4054 29.7604L91.6724 29.5316ZM90.1331 32.8156C90.1355 32.8165 90.1382 32.8165 90.1406 32.8175C90.137 32.8157 90.133 32.8146 90.1294 32.8128C90.1306 32.8137 90.1319 32.8147 90.1331 32.8156ZM90.4763 31.9692C90.4073 32.0028 90.3497 32.057 90.3117 32.1236C90.2737 32.1902 90.2562 32.2668 90.2624 32.3431C90.2624 32.4508 90.2836 32.5313 90.3368 32.5896C90.4323 32.6864 90.6186 32.7161 90.933 32.7161C91.1732 32.7161 91.3343 32.6967 91.438 32.6445C91.4979 32.6032 91.5399 32.551 91.5673 32.4882C91.5563 32.5256 91.5427 32.5585 91.5198 32.5859C91.5559 32.5462 91.5773 32.4957 91.5877 32.4315C91.5826 32.4515 91.5752 32.47 91.5673 32.4882C91.58 32.4445 91.5887 32.3939 91.5887 32.3348C91.5885 32.038 91.4279 31.9925 90.933 31.9925C90.7811 32.0046 90.6285 32.007 90.4763 31.9999V31.9692ZM90.4763 31.9544C90.44 31.9727 90.4066 31.9962 90.3777 32.0241C90.4067 31.9984 90.4404 31.9776 90.4763 31.9618C90.5119 31.9641 90.5476 31.9634 90.5833 31.9646C90.5476 31.9608 90.5118 31.9594 90.4763 31.9544ZM90.0847 31.7777C90.106 31.7985 90.13 31.8154 90.1564 31.8297C90.1588 31.8282 90.1613 31.8266 90.1638 31.8251C90.135 31.8135 90.1085 31.797 90.0847 31.7777ZM90.0541 30.9043C90.1164 31.014 90.2105 31.101 90.3219 31.1592C90.3299 31.1577 90.3379 31.1558 90.3461 31.1545C90.2499 31.1133 90.1653 31.0496 90.0996 30.9694L90.0541 30.9043ZM90.933 29.9966C90.514 29.9966 90.3163 30.1564 90.3163 30.4839V30.5444C90.3163 30.7556 90.3801 30.8915 90.5275 30.9666C90.6211 31.0096 90.7483 31.0327 90.9181 31.0327C91.3903 31.0326 91.5198 30.8645 91.5198 30.537V30.4765C91.5198 30.153 91.3266 29.9922 90.933 29.9882V29.9966ZM90.3898 30.1779C90.331 30.2541 90.3005 30.3536 90.3005 30.4765V30.537C90.3005 30.6689 90.3262 30.7736 90.3852 30.8532C90.3333 30.7761 90.308 30.6744 90.308 30.5444V30.4765C90.308 30.3509 90.3372 30.2496 90.3954 30.1724L90.3898 30.1779ZM91.6491 29.9659C91.716 30.034 91.7685 30.1148 91.8026 30.204C91.8367 30.2931 91.8516 30.3886 91.8472 30.4839L91.863 30.5053V30.4458C91.8674 30.3505 91.8515 30.255 91.8174 30.1659C91.7851 30.0814 91.7361 30.0047 91.6742 29.9389L91.6491 29.9659ZM90.933 29.6841C90.5911 29.6841 90.3283 29.7802 90.1647 29.9482C90.3301 29.7933 90.5894 29.7138 90.9255 29.7138C91.0876 29.7109 91.2487 29.7427 91.398 29.8059L91.4092 29.7948C91.2577 29.7354 91.0959 29.7062 90.933 29.7138V29.6841Z" fill="#009EDB"/>
<path fill-rule="evenodd" clip-rule="evenodd" d="M79.4514 29.5316C79.5276 29.4554 79.5659 29.4554 79.642 29.5316C79.6875 29.5695 79.7024 29.5924 79.7025 29.6227C79.7025 29.6337 79.6997 29.643 79.6969 29.6534C79.6979 29.6661 79.6947 29.6778 79.6876 29.6915C79.6811 29.7156 79.6689 29.7404 79.6448 29.7473C79.6436 29.7486 79.6433 29.7507 79.642 29.752L79.4532 29.9464C79.514 30.0092 79.5632 30.0826 79.5955 30.164C79.631 30.2534 79.6469 30.3497 79.642 30.4458V30.5063C79.642 30.5481 79.6377 30.5885 79.6337 30.6272V30.4839L79.6262 30.537C79.6262 30.6657 79.6071 30.779 79.5704 30.8774C79.6032 30.8031 79.624 30.72 79.6337 30.6272C79.6315 30.7161 79.6151 30.8045 79.5825 30.8876C79.5417 30.9914 79.4784 31.0852 79.3974 31.162C79.1753 31.3166 78.9051 31.387 78.6357 31.3601C78.4738 31.341 78.3103 31.341 78.1484 31.3601C78.1395 31.3615 78.1315 31.3653 78.1233 31.3684C78.1124 31.376 78.1018 31.3848 78.0935 31.3954C78.0904 31.3994 78.0887 31.4042 78.0861 31.4084C78.0819 31.4222 78.0792 31.4366 78.0795 31.4512C78.0795 31.5121 78.1179 31.5502 78.1939 31.573C78.3536 31.5868 78.5142 31.5868 78.6738 31.573C78.9486 31.548 79.2251 31.5984 79.4737 31.7181C79.5527 31.7722 79.6151 31.8474 79.6541 31.9348C79.693 32.0221 79.7075 32.1182 79.6951 32.2129C79.7083 32.3175 79.6942 32.4242 79.6541 32.5217C79.6194 32.6063 79.5646 32.6802 79.497 32.7412C79.4756 32.7647 79.453 32.7871 79.4281 32.8072C79.3887 32.828 79.3473 32.8443 79.3063 32.8612C79.1078 32.96 78.8896 33.0154 78.6664 33.0211C78.4033 33.0411 78.1398 32.9882 77.9047 32.8686C77.8446 32.8216 77.7951 32.7627 77.7577 32.6965C77.7886 32.7406 77.8245 32.7815 77.8666 32.8156C78.103 32.9313 78.3655 32.9831 78.6283 32.9672C78.6966 32.9723 78.765 32.9718 78.8329 32.9672L78.4692 32.9663C78.2729 32.952 78.0809 32.8981 77.9047 32.8072C77.8299 32.7512 77.7703 32.6775 77.7317 32.5924C77.7036 32.5304 77.6874 32.4637 77.6833 32.3961C77.6809 32.4828 77.6973 32.5689 77.7326 32.6482C77.74 32.6648 77.7488 32.6808 77.7577 32.6965C77.7358 32.6653 77.7155 32.6323 77.7001 32.597C77.6631 32.5123 77.6466 32.4196 77.6526 32.3273C77.6473 32.2302 77.6693 32.1332 77.715 32.0474C77.7573 31.9677 77.8191 31.9003 77.8945 31.8511C77.8971 31.8528 77.8992 31.8551 77.9019 31.8567C77.9173 31.8453 77.9336 31.8349 77.9503 31.8251C77.8903 31.801 77.8394 31.758 77.8052 31.7032C77.771 31.6485 77.755 31.5844 77.7596 31.52C77.7596 31.5073 77.7605 31.4949 77.7615 31.4828C77.7553 31.5109 77.7522 31.5409 77.7522 31.573C77.7485 31.6294 77.7619 31.6849 77.7875 31.7349C77.7827 31.7283 77.776 31.7232 77.7717 31.7163C77.7379 31.6621 77.7201 31.5987 77.7215 31.5349C77.7216 31.3926 77.7807 31.2952 77.9 31.2354C77.9413 31.2077 77.9917 31.1858 78.0516 31.1703C77.9762 31.125 77.9108 31.0658 77.8591 30.9945C77.9179 31.0663 77.9912 31.1242 78.0749 31.1657C78.0935 31.1615 78.1132 31.1576 78.1335 31.1545C78.0052 31.0996 77.8975 31.0046 77.8275 30.8839C77.7575 30.7631 77.7286 30.6226 77.7447 30.4839V30.4765C77.7447 29.9786 78.0956 29.7198 78.6869 29.7148C78.6801 29.7148 78.6732 29.7138 78.6664 29.7138V29.6841C78.5045 29.6841 78.3602 29.7058 78.2358 29.7473C78.3834 29.6876 78.5434 29.6604 78.7045 29.6683C78.8692 29.6647 79.0326 29.6965 79.1845 29.7604L79.4514 29.5316ZM78.2172 31.9692C78.1482 32.0028 78.0906 32.057 78.0526 32.1236C78.0146 32.1902 77.9971 32.2668 78.0033 32.3431C78.0033 32.4509 78.0247 32.5312 78.0777 32.5896C78.1726 32.6863 78.357 32.7161 78.6664 32.7161C78.9809 32.7161 79.1654 32.6846 79.2589 32.5822C79.3087 32.5231 79.3295 32.4424 79.3295 32.3348C79.3294 32.038 79.169 31.9925 78.6664 31.9925C78.517 32.0045 78.3669 32.0068 78.2172 31.9999V31.9692ZM78.2172 31.9544C78.1809 31.9727 78.1475 31.9962 78.1186 32.0241C78.1475 31.9984 78.1813 31.9776 78.2172 31.9618C78.2522 31.964 78.2873 31.9634 78.3223 31.9646C78.2873 31.9608 78.252 31.9593 78.2172 31.9544ZM78.6664 29.9966C78.255 29.9966 78.0572 30.1563 78.0572 30.4839V30.5444C78.0572 30.6716 78.0805 30.7717 78.1307 30.8476C78.2183 30.9696 78.3841 31.0327 78.6664 31.0327C79.1312 31.0327 79.2756 30.8646 79.2756 30.537V30.4765C79.2756 30.4607 79.2728 30.445 79.2719 30.43C79.2526 30.1402 79.0502 29.9882 78.6664 29.9882V29.9966ZM79.5397 30.1026C79.5587 30.1351 79.5755 30.1687 79.589 30.204C79.6146 30.2708 79.6296 30.3412 79.6337 30.4123V30.4049C79.6298 30.3342 79.6147 30.2644 79.5881 30.1984C79.5747 30.1652 79.5583 30.133 79.5397 30.1026ZM79.5156 29.526C79.4878 29.5257 79.459 29.5426 79.4207 29.5771L79.1677 29.7994C79.1732 29.8016 79.1789 29.8036 79.1845 29.8059L79.4514 29.5697C79.4757 29.5478 79.4965 29.5339 79.5156 29.526Z" fill="#009EDB"/>
<path fill-rule="evenodd" clip-rule="evenodd" d="M66.0185 32.3961C66.0811 32.3961 66.1417 32.4208 66.1859 32.465C66.2302 32.5093 66.2548 32.5697 66.2548 32.6324C66.2557 32.6623 66.2507 32.6922 66.239 32.7198C66.2271 32.7474 66.2092 32.7723 66.1869 32.7923C66.1648 32.8142 66.1384 32.8317 66.1097 32.8435C66.0809 32.8553 66.0496 32.8613 66.0185 32.8612C65.9826 32.86 65.9485 32.8488 65.9172 32.8323C65.9137 32.8306 65.9103 32.8287 65.9069 32.8268C65.895 32.8197 65.884 32.8117 65.8734 32.8026C65.8689 32.7988 65.8628 32.7965 65.8586 32.7923C65.8367 32.7711 65.8193 32.7451 65.8074 32.717C65.7957 32.689 65.7897 32.659 65.7897 32.6287C65.7897 32.6149 65.791 32.6012 65.7935 32.5877C65.7962 32.5719 65.8003 32.5562 65.8065 32.5412C65.8182 32.5125 65.8361 32.4864 65.8586 32.465C65.8785 32.4426 65.9035 32.4247 65.9311 32.4129C65.9586 32.4011 65.9886 32.3952 66.0185 32.3961ZM66.2464 32.6287C66.2464 32.6735 66.234 32.7177 66.2092 32.7551C66.1978 32.7723 66.1827 32.7864 66.1673 32.7998C66.1708 32.797 66.1752 32.7954 66.1785 32.7923C66.2001 32.7718 66.2179 32.7472 66.2297 32.7198C66.2414 32.6923 66.2473 32.6623 66.2473 32.6324C66.2468 32.6149 66.2432 32.5979 66.239 32.5812C66.2423 32.5969 66.2464 32.6125 66.2464 32.6287Z" fill="#009EDB"/>
<path fill-rule="evenodd" clip-rule="evenodd" d="M83.1484 28.7922C83.2004 28.7922 83.2357 28.7935 83.2581 28.8126C83.251 28.8112 83.2429 28.8116 83.2339 28.8108C83.2746 28.8235 83.2916 28.8553 83.2916 28.9521L83.2832 28.8601C83.2779 28.8377 83.2699 28.8226 83.2581 28.8126C83.3141 28.824 83.3139 28.8579 83.3139 28.9521V29.1958H83.2916V29.2042H83.3139V29.1958H83.565C83.6196 29.1958 83.6553 29.197 83.6766 29.22C83.6706 29.2182 83.6639 29.2165 83.6562 29.2153C83.6839 29.2286 83.6952 29.2585 83.6952 29.3335H83.7027C83.7027 29.2719 83.694 29.2387 83.6766 29.22C83.7252 29.2339 83.7259 29.2675 83.7259 29.3335L83.7231 29.3958C83.7186 29.4324 83.7043 29.4496 83.659 29.4572C83.6387 29.4657 83.6088 29.4702 83.565 29.4702H83.3214V31.0857C83.3214 31.1247 83.3201 31.1625 83.3176 31.1992C83.3246 31.3196 83.31 31.4405 83.2721 31.5554C83.2287 31.6868 83.1572 31.8075 83.0628 31.9088C82.8487 32.0823 82.5758 32.1669 82.3011 32.145C82.0259 32.1694 81.7515 32.0845 81.5384 31.9088C81.4446 31.8074 81.3741 31.6861 81.332 31.5544C81.3019 31.4604 81.2871 31.3625 81.2873 31.2643C81.2946 31.3317 81.3087 31.3985 81.3301 31.4633C81.3436 31.5042 81.3607 31.5438 81.3794 31.5823C81.3297 31.472 81.3004 31.3422 81.291 31.1926C81.2895 31.2116 81.2877 31.2304 81.2873 31.2494V31.2615C81.2801 31.1931 81.2798 31.1237 81.2873 31.055V30.6439C81.284 30.6107 81.283 30.5776 81.2836 30.5444C81.2807 30.4327 81.295 30.321 81.3292 30.2142C81.3711 30.0832 81.4401 29.9622 81.531 29.8589C81.6323 29.7646 81.7529 29.6931 81.8844 29.6497C82.0158 29.6063 82.1552 29.5924 82.2927 29.6078C82.4305 29.592 82.5702 29.6143 82.6964 29.672C82.8225 29.7297 82.9307 29.8206 83.0089 29.9352V29.5009H82.3773C82.2707 29.5009 82.2472 29.5009 82.2471 29.3716C82.2471 29.3662 82.2471 29.3608 82.2471 29.3558C82.2419 29.3361 82.2397 29.3089 82.2397 29.2721C82.2397 29.1656 82.2403 29.1354 82.3773 29.1354H83.0014V29.2116H82.3773C82.2872 29.2116 82.2629 29.2115 82.2574 29.2851C82.2695 29.254 82.2986 29.2423 82.3773 29.2423H83.0098V28.9521C83.0098 28.8723 83.0092 28.8328 83.0433 28.8145C83.0077 28.8268 83.0014 28.8605 83.0014 28.9521C83.0014 28.8244 83.0017 28.7929 83.1484 28.7922ZM83.0656 31.8121C82.8952 31.9731 82.6401 32.0529 82.3011 32.0529C82.0551 32.0529 81.8545 32.0101 81.6984 31.9255C81.8806 32.0278 82.0899 32.0765 82.3011 32.0613C82.6401 32.0613 82.8953 31.9788 83.0619 31.8158L83.0656 31.8121ZM81.5384 31.8167C81.5587 31.8335 81.5804 31.849 81.6017 31.8641C81.5565 31.83 81.5162 31.7914 81.4808 31.7479L81.5384 31.8167ZM82.2778 30.004C81.7674 30.004 81.6147 30.2019 81.6147 30.6513V31.0782C81.6147 31.2492 81.6374 31.3835 81.6928 31.4847C81.6499 31.3886 81.6305 31.265 81.6305 31.1089V30.682C81.6305 30.2097 81.8211 30.0263 82.3011 30.0263V30.0422C81.8287 30.0422 81.6379 30.2173 81.6379 30.682V31.1089C81.638 31.3276 81.6784 31.4798 81.7682 31.5814C81.8709 31.6789 82.0325 31.7256 82.2778 31.7256C82.7882 31.7256 82.9484 31.5276 82.9484 31.0782V30.6513C82.9484 30.4373 82.9113 30.2809 82.8182 30.1752C82.7361 30.0976 82.6205 30.0533 82.4676 30.0356L82.3011 30.0263V30.0115C82.4211 30.0115 82.522 30.0221 82.6061 30.045C82.5178 30.0176 82.4096 30.004 82.2778 30.004ZM82.2471 29.7138C82.3928 29.6898 82.5426 29.7093 82.6778 29.7687C82.813 29.8282 82.929 29.9258 83.0098 30.0496V30.0245C82.9269 29.9069 82.8125 29.8147 82.6796 29.7594C82.543 29.7027 82.3925 29.6867 82.2471 29.7138ZM81.531 29.9501C81.5174 29.9661 81.5054 29.9835 81.4929 30.0003C81.5078 29.9831 81.523 29.9661 81.5394 29.9501C81.5605 29.9295 81.5824 29.9088 81.6054 29.8906C81.5796 29.909 81.5549 29.9291 81.531 29.9501Z" fill="#009EDB"/>
<path fill-rule="evenodd" clip-rule="evenodd" d="M71.451 29.6301C71.6474 29.6253 71.8435 29.6535 72.0304 29.7138C72.1385 29.7439 72.1604 29.7649 72.1653 29.8245C72.201 29.8538 72.2127 29.906 72.2127 29.9733V30.0189C72.2127 30.0783 72.2126 30.1124 72.1923 30.1277C72.1911 30.1319 72.192 30.1367 72.1904 30.1407C72.1514 30.1568 72.1076 30.1568 72.0686 30.1407C71.8847 30.0778 71.6909 30.0472 71.4966 30.0496C71.1618 30.0497 71.0327 30.1257 71.0325 30.3082C71.033 30.3174 71.034 30.3269 71.0353 30.3361C71.0279 30.3208 71.0226 30.3048 71.0176 30.2886C71.0175 30.2926 71.0167 30.2966 71.0167 30.3007C71.0167 30.4586 71.0751 30.5107 71.1859 30.5676C71.1548 30.5481 71.1264 30.5242 71.1032 30.4951C71.0666 30.4491 71.0433 30.3939 71.0353 30.3361C71.0468 30.3597 71.0611 30.3825 71.0781 30.403C71.1232 30.4576 71.1843 30.497 71.2529 30.5146L71.8472 30.789C72.1125 30.9114 72.2679 30.9789 72.2983 31.2847C72.2488 31.1215 72.1363 31.0194 71.9644 30.9294C72.1496 31.0326 72.2594 31.1413 72.3001 31.3219C72.2993 31.3092 72.2995 31.2967 72.2983 31.2847C72.3175 31.348 72.3271 31.4207 72.3271 31.5051C72.327 31.6519 72.2736 31.7743 72.1662 31.8669C72.0255 32.0046 71.7868 32.0911 71.4436 32.0911C71.2225 32.0938 71.0021 32.0656 70.7888 32.0074C70.667 31.9693 70.6363 31.9314 70.6363 31.8325V31.7395C70.6364 31.7142 70.636 31.6935 70.6391 31.6772C70.6376 31.6782 70.6363 31.6783 70.6363 31.68V31.6344H70.6707C70.6754 31.6325 70.6805 31.6308 70.6865 31.6298L70.7349 31.5888C70.9583 31.6491 71.1889 31.6796 71.4203 31.68C71.7866 31.68 71.9239 31.5626 71.9291 31.4214C71.9344 31.4474 71.9393 31.4771 71.9393 31.5126C71.9393 31.5572 71.9295 31.5942 71.9132 31.6261C71.9503 31.5861 71.969 31.535 71.969 31.467C71.969 31.3457 71.9406 31.287 71.8677 31.2354C71.9128 31.2867 71.9309 31.3425 71.9309 31.4131C71.9309 31.4158 71.9292 31.4187 71.9291 31.4214C71.9057 31.3083 71.8275 31.2719 71.6417 31.1852L71.0706 30.9108C70.7887 30.7737 70.6363 30.6358 70.6363 30.3082C70.6363 30.2972 70.6385 30.2864 70.6391 30.2756C70.6489 30.4838 70.7063 30.5865 70.8121 30.6653C70.7193 30.5666 70.6744 30.4444 70.6744 30.2626C70.6745 29.9446 70.9453 29.7165 71.4873 29.7138C71.4805 29.7139 71.4736 29.7137 71.4668 29.7138C70.9221 29.7138 70.6566 29.9633 70.6391 30.2756C70.6381 30.2547 70.6363 30.2327 70.6363 30.2096C70.6363 29.8134 70.895 29.6302 71.451 29.6301ZM71.2603 30.6058L71.5682 30.7444L71.2687 30.6058C71.2577 30.6026 71.2468 30.598 71.2362 30.5937C71.2441 30.5975 71.252 30.6018 71.2603 30.6058Z" fill="#009EDB"/>
<path fill-rule="evenodd" clip-rule="evenodd" d="M94.164 29.6757C94.474 29.6758 94.7102 29.7344 94.8727 29.8506C94.8132 29.816 94.7505 29.7883 94.6867 29.7641C94.9632 29.8737 95.1006 30.086 95.1006 30.4002V31.3219C95.1005 31.5642 95.0346 31.7452 94.8969 31.8707C95.0263 31.7703 95.102 31.6305 95.1294 31.4484C95.1229 31.5106 95.1084 31.5718 95.0838 31.6298C95.0426 31.7269 94.9777 31.8125 94.895 31.8781C94.8897 31.8813 94.8837 31.8834 94.8783 31.8865C94.7205 32.0183 94.4765 32.0836 94.1333 32.0836C93.6835 32.0836 93.3755 31.9318 93.2897 31.5963C93.2682 31.5253 93.2572 31.4465 93.2572 31.3601C93.2572 30.9029 93.5467 30.6746 94.2096 30.6746H94.7499V30.4002C94.7499 30.1107 94.5672 29.9882 94.1482 29.9882C94.0624 29.987 93.9768 29.9908 93.8915 29.9984L93.6376 30.0338H93.5157C93.5061 30.0336 93.5048 30.0241 93.5064 30.0087C93.4921 29.9922 93.4851 29.9655 93.485 29.9203V29.8822C93.485 29.7756 93.4855 29.7451 93.6301 29.7222C93.7958 29.6905 93.9646 29.6744 94.1333 29.6757H94.164ZM94.2096 30.9945C93.7905 30.9945 93.6153 31.1088 93.6153 31.3907C93.6153 31.4206 93.617 31.4485 93.6208 31.4745C93.6126 31.4395 93.6078 31.4016 93.6078 31.3601C93.6078 31.2003 93.6735 31.0851 93.8161 31.0178C93.6752 31.0789 93.6078 31.188 93.6078 31.3601C93.6078 31.4059 93.613 31.4468 93.6218 31.4838C93.6213 31.4807 93.6213 31.4776 93.6208 31.4745C93.6654 31.6636 93.831 31.7563 94.1333 31.7563C94.4314 31.7562 94.672 31.6837 94.7378 31.4465C94.7456 31.4129 94.7499 31.3763 94.7499 31.3368V30.9945H94.2096ZM94.2096 30.6895C93.5543 30.6895 93.2646 30.8953 93.2646 31.3601C93.2646 31.3641 93.2655 31.3681 93.2656 31.3721C93.2735 30.9054 93.5853 30.7127 94.2096 30.7127H94.7583V30.682L94.2096 30.6895ZM93.5278 30.0217C93.5303 30.023 93.5331 30.0244 93.5381 30.0245C93.5344 30.0235 93.5311 30.0231 93.5278 30.0217ZM94.2449 29.6813C94.357 29.6866 94.4581 29.6976 94.5481 29.7194C94.4492 29.6947 94.3476 29.6813 94.2449 29.6813Z" fill="#009EDB"/>
<path fill-rule="evenodd" clip-rule="evenodd" d="M57.9428 29.646C58.5239 29.646 58.8417 29.8655 58.9296 30.3314C58.9479 30.4098 58.9569 30.4951 58.9603 30.5872C58.9612 30.6082 58.9638 30.6295 58.964 30.6513V31.0782C58.979 31.2158 58.9637 31.3552 58.9203 31.4865C58.8769 31.6179 58.8059 31.7384 58.712 31.84C58.4989 32.0157 58.2253 32.1006 57.9503 32.0762C57.4191 32.0762 57.1073 31.8972 56.9904 31.5154C57.1135 31.8855 57.4249 32.0613 57.9503 32.0613C58.0871 32.0819 58.2271 32.0701 58.3586 32.0269C58.4571 31.9944 58.5491 31.9449 58.6301 31.8809L58.6441 31.8679C58.478 31.9918 58.2471 32.0529 57.9503 32.0529C57.3993 32.0529 57.0696 31.832 56.9653 31.4056L56.9523 31.3405C56.9597 31.3928 56.9702 31.4419 56.983 31.4884C56.9476 31.3706 56.9291 31.2343 56.9291 31.0782V30.6513C56.916 30.5139 56.9314 30.3751 56.9746 30.244C57.0179 30.1128 57.0888 29.9923 57.1811 29.8896C57.3953 29.7155 57.6673 29.6284 57.9428 29.646ZM57.9503 30.0115C57.4627 30.0115 57.2871 30.179 57.2871 30.6513V31.0782C57.2872 31.5429 57.4703 31.7181 57.9503 31.7181C58.3072 31.7181 58.499 31.6251 58.5743 31.3833C58.5754 31.3799 58.5761 31.3765 58.5771 31.3731C58.6009 31.2918 58.6134 31.1944 58.6134 31.0782V30.6513C58.6134 30.534 58.6014 30.4356 58.5771 30.3537C58.5749 30.346 58.5712 30.3389 58.5688 30.3314C58.4902 30.1008 58.2997 30.0115 57.9503 30.0115ZM58.9612 31.122C58.9569 31.3032 58.9265 31.4572 58.8682 31.5851C58.8882 31.5456 58.9073 31.5056 58.9212 31.4633C58.9575 31.3531 58.9698 31.2372 58.9612 31.122ZM56.9365 30.4756C56.9325 30.5132 56.9304 30.5511 56.9309 30.589C56.933 30.5311 56.937 30.4759 56.9449 30.4235L56.9365 30.4756Z" fill="#009EDB"/>
<path fill-rule="evenodd" clip-rule="evenodd" d="M66.0111 29.646C66.6095 29.646 66.9288 29.8785 67.0053 30.3733C66.9821 30.2523 66.9443 30.1494 66.8891 30.0636L66.8872 30.0617C66.9796 30.2143 67.0248 30.4114 67.0249 30.6513V30.6281C67.0248 30.5444 67.0191 30.4663 67.009 30.3937L67.0146 30.4207C67.0254 30.4917 67.0313 30.5685 67.0323 30.6513V31.0782C67.0473 31.2158 67.0329 31.3552 66.9895 31.4865C66.9462 31.6178 66.875 31.7384 66.7812 31.84C66.5673 32.0143 66.2935 32.099 66.0185 32.0762C65.5736 32.0761 65.2836 31.9499 65.1322 31.6846C65.2899 31.9389 65.5813 32.0613 66.0185 32.0613C66.1553 32.0819 66.2954 32.0701 66.4268 32.0269C66.5582 31.9837 66.6778 31.9099 66.7756 31.8121C66.8734 31.7142 66.9472 31.5947 66.9904 31.4633C67.0337 31.3319 67.0455 31.1918 67.0249 31.055V31.0782C67.0248 31.7334 66.6889 32.0529 66.0185 32.0529C65.4431 32.0529 65.1043 31.806 65.0196 31.3312C65.0345 31.4422 65.0603 31.5406 65.0996 31.6261C65.0267 31.4812 64.9899 31.2994 64.9899 31.0782V30.6513C64.9778 30.5134 64.9946 30.3742 65.0392 30.2431C65.0838 30.1119 65.1557 29.9917 65.2494 29.8896C65.4628 29.714 65.7353 29.6269 66.0111 29.646ZM66.0185 30.0115C65.5312 30.0115 65.348 30.1791 65.348 30.6513V31.0782C65.348 31.5428 65.5388 31.718 66.0185 31.7181C66.4985 31.7181 66.6742 31.5505 66.6742 31.0782V30.6513C66.6742 30.179 66.4985 30.0115 66.0185 30.0115ZM66.6817 30.6513L66.6742 30.4942C66.674 30.492 66.6735 30.4898 66.6733 30.4877C66.6788 30.5378 66.6817 30.5923 66.6817 30.6513ZM65.028 30.3463C65.0135 30.4052 65.0052 30.4653 65.002 30.5258C65.0067 30.4624 65.0159 30.4026 65.028 30.3463ZM65.3489 30.4895L65.3498 30.4877C65.3508 30.4797 65.3534 30.4721 65.3545 30.4644C65.3532 30.4728 65.3499 30.4809 65.3489 30.4895Z" fill="#009EDB"/>
<path fill-rule="evenodd" clip-rule="evenodd" d="M73.7752 29.646C74.4684 29.646 74.7964 29.9586 74.7964 30.629V31.0782C74.8114 31.2158 74.7961 31.3552 74.7527 31.4865C74.7093 31.6179 74.6383 31.7384 74.5444 31.84C74.3313 32.0157 74.0578 32.1006 73.7827 32.0762C73.2148 32.0762 72.8978 31.8717 72.8015 31.4335C72.9065 31.8595 73.2263 32.0613 73.7827 32.0613C74.2392 32.0613 74.5415 31.9114 74.6895 31.6075C74.5424 31.9058 74.2419 32.0529 73.7827 32.0529C73.2317 32.0529 72.9019 31.832 72.7977 31.4056L72.7847 31.3405C72.7892 31.3726 72.7949 31.4036 72.8015 31.4335C72.7756 31.3287 72.7615 31.2106 72.7615 31.0782V30.6513C72.7484 30.5139 72.7638 30.3751 72.807 30.244C72.8503 30.1128 72.9212 29.9923 73.0135 29.8896C73.2284 29.7168 73.4999 29.6299 73.7752 29.646ZM73.7827 30.0115C73.2951 30.0115 73.1195 30.179 73.1195 30.6513V31.0782C73.1196 31.5429 73.3027 31.7181 73.7827 31.7181C74.1382 31.7181 74.3299 31.6258 74.4058 31.3861C74.4072 31.3817 74.4092 31.3775 74.4105 31.3731C74.4342 31.2918 74.4458 31.1943 74.4458 31.0782V30.6513C74.4458 30.179 74.2626 30.0115 73.7827 30.0115ZM72.7773 30.4198C72.7681 30.4757 72.7626 30.5323 72.7633 30.589C72.7654 30.5298 72.769 30.4733 72.7773 30.4198Z" fill="#009EDB"/>
<path fill-rule="evenodd" clip-rule="evenodd" d="M84.8001 29.646C85.2408 29.646 85.4941 29.7688 85.6679 30.0301C85.6553 30.0139 85.6434 29.9975 85.6298 29.9826C85.6486 30.0061 85.6668 30.0301 85.6828 30.0561C85.6774 30.0476 85.6734 30.0383 85.6679 30.0301C85.6951 30.0649 85.7194 30.1029 85.7423 30.1445C85.7403 30.1454 85.7388 30.1473 85.7367 30.1482C85.7216 30.1187 85.7048 30.0913 85.6884 30.0645C85.7096 30.1003 85.7281 30.1384 85.7442 30.1789C85.7498 30.1789 85.7553 30.1768 85.7609 30.1752C85.7555 30.1644 85.748 30.1548 85.7423 30.1445C85.8294 30.1036 85.866 29.9838 85.866 29.7901C85.866 29.7143 85.8666 29.6916 85.9804 29.6915H86.0567C86.1222 29.6915 86.1498 29.6916 86.159 29.739C86.1548 29.7374 86.1506 29.7344 86.145 29.7334C86.1581 29.7436 86.1619 29.7629 86.1627 29.8003C86.1627 29.7971 86.1636 29.7934 86.1636 29.7901C86.1636 29.7687 86.1615 29.7521 86.159 29.739C86.1857 29.749 86.1869 29.7691 86.1869 29.8134C86.1869 30.1486 86.0642 30.3547 85.8204 30.4309V31.0782C85.8354 31.2158 85.821 31.3551 85.7776 31.4865C85.7343 31.6179 85.6632 31.7384 85.5693 31.84C85.3555 32.0142 85.0825 32.0989 84.8076 32.0762C84.3612 32.0762 84.0696 31.9497 83.9185 31.6828C84.0759 31.9388 84.3689 32.0613 84.8076 32.0613C84.9432 32.0793 85.081 32.0648 85.2103 32.0204C85.3397 31.976 85.4575 31.9021 85.5535 31.8046C85.5666 31.7913 85.5785 31.7769 85.5907 31.7628C85.4246 31.9568 85.1586 32.0529 84.7918 32.0529C84.2472 32.0529 83.9238 31.8319 83.8217 31.4056L83.8282 31.4438C83.8488 31.5333 83.8788 31.6128 83.9185 31.6828C83.8244 31.5298 83.779 31.329 83.7789 31.0782V30.6513C83.7669 30.5133 83.7836 30.3742 83.8282 30.2431C83.8728 30.112 83.944 29.9916 84.0375 29.8896C84.251 29.714 84.5244 29.6269 84.8001 29.646ZM85.7981 31.0782C85.7981 31.3589 85.7361 31.5779 85.613 31.7367C85.6793 31.654 85.7307 31.5599 85.7637 31.4586C85.8061 31.3286 85.8182 31.1903 85.7981 31.055V31.0782ZM84.8076 30.0115C84.32 30.0115 84.137 30.179 84.137 30.6513V31.0782C84.1371 31.5429 84.3276 31.7181 84.8076 31.7181C85.2874 31.7181 85.4623 31.5504 85.4624 31.0782V30.6513C85.4623 30.1791 85.2874 30.0115 84.8076 30.0115ZM83.8171 30.3463C83.8027 30.4047 83.7943 30.464 83.791 30.5239C83.7958 30.4612 83.8051 30.4021 83.8171 30.3463ZM84.6541 29.6822C84.596 29.6857 84.5385 29.6936 84.4821 29.7064C84.5363 29.6955 84.5935 29.6871 84.6541 29.6822Z" fill="#009EDB"/>
<path fill-rule="evenodd" clip-rule="evenodd" d="M102.796 29.646C103.254 29.646 103.539 29.7797 103.691 30.0626C103.64 29.9906 103.581 29.9321 103.513 29.884C103.608 29.9656 103.687 30.0644 103.741 30.1789C103.746 30.1789 103.751 30.1767 103.757 30.1752C103.751 30.1645 103.745 30.1547 103.739 30.1445C103.826 30.1034 103.863 29.9835 103.863 29.7901C103.863 29.7142 103.863 29.6915 103.977 29.6915H104.053C104.119 29.6915 104.146 29.6918 104.155 29.7408C104.151 29.7389 104.147 29.7375 104.143 29.7362C104.154 29.7469 104.158 29.7652 104.158 29.8003C104.158 29.7971 104.159 29.7934 104.159 29.7901C104.159 29.7696 104.157 29.7537 104.155 29.7408C104.174 29.7518 104.175 29.7724 104.175 29.8134C104.175 30.1486 104.061 30.3547 103.817 30.4309V31.0782C103.832 31.2158 103.818 31.3552 103.774 31.4865C103.731 31.6179 103.659 31.7384 103.565 31.84C103.351 32.0141 103.078 32.099 102.803 32.0762C102.358 32.0761 102.068 31.9499 101.917 31.6846C102.075 31.9389 102.366 32.0613 102.803 32.0613C102.939 32.0793 103.078 32.0648 103.207 32.0204C103.332 31.9775 103.445 31.9065 103.539 31.8139C103.371 31.9738 103.122 32.0529 102.788 32.0529C102.217 32.0529 101.889 31.8093 101.805 31.3405C101.82 31.4477 101.846 31.543 101.884 31.6261C101.811 31.4812 101.775 31.2994 101.775 31.0782V30.6513C101.763 30.5134 101.779 30.3742 101.824 30.2431C101.869 30.1119 101.94 29.9917 102.034 29.8896C102.248 29.714 102.52 29.6269 102.796 29.646ZM103.545 31.8074C103.547 31.8063 103.548 31.8057 103.549 31.8046C103.558 31.7954 103.567 31.7854 103.575 31.7758C103.566 31.7866 103.556 31.7973 103.545 31.8074ZM103.794 31.0782C103.794 31.3606 103.731 31.5805 103.607 31.7395C103.674 31.6561 103.727 31.5611 103.76 31.4586C103.803 31.3286 103.814 31.1903 103.794 31.055V31.0782ZM102.803 30.0115C102.316 30.0115 102.133 30.1791 102.133 30.6513V31.0782C102.133 31.5428 102.324 31.7181 102.803 31.7181C103.283 31.7181 103.459 31.5505 103.459 31.0782V30.6513C103.459 30.179 103.283 30.0115 102.803 30.0115ZM102.134 30.4942C102.128 30.5427 102.125 30.5951 102.125 30.6513L102.135 30.4877L102.134 30.4942ZM103.466 30.6513L103.459 30.4942C103.459 30.492 103.458 30.4898 103.458 30.4877C103.464 30.5378 103.466 30.5923 103.466 30.6513ZM101.798 30.4188C101.792 30.4536 101.79 30.4887 101.788 30.5239C101.79 30.4878 101.793 30.4527 101.798 30.4188Z" fill="#009EDB"/>
<path fill-rule="evenodd" clip-rule="evenodd" d="M53.2032 28.9521L53.366 28.9531C53.5284 28.9612 53.6896 28.992 53.844 29.0442C53.9635 29.0841 53.977 29.1239 53.9789 29.1893C53.9741 29.1714 53.9674 29.1561 53.9557 29.1419C53.9748 29.1695 53.9808 29.2039 53.9808 29.2497V29.2191C53.9808 29.2086 53.9792 29.1987 53.9789 29.1893C53.9843 29.2091 53.9882 29.231 53.9882 29.2572V29.3149C53.9865 29.303 53.9857 29.2905 53.9808 29.2795V29.3102C53.9808 29.3419 53.9768 29.3673 53.9696 29.3865H53.9808C53.9858 29.3753 53.9865 29.3632 53.9882 29.3511V29.432C53.9882 29.4473 53.9271 29.432 53.8738 29.432C53.6677 29.3509 53.448 29.3095 53.2265 29.3102C52.6779 29.3102 52.4648 29.5772 52.4648 30.1714V30.9332C52.4648 31.225 52.5325 31.432 52.6778 31.5637C52.5026 31.4338 52.4192 31.2149 52.4192 30.895V30.3016L52.3885 30.9025C52.3885 31.3128 52.5239 31.5738 52.8535 31.6726C52.7854 31.645 52.7273 31.6087 52.6778 31.5637C52.8112 31.6628 52.9976 31.7106 53.2414 31.7107C53.345 31.7121 53.4483 31.7022 53.5501 31.6856C53.6602 31.6652 53.7686 31.6358 53.8738 31.5963C53.917 31.5778 53.9474 31.5753 53.9687 31.5842C53.9941 31.5812 54.0115 31.5795 54.0115 31.5888V31.6186H53.9975C54.0053 31.6381 54.0114 31.6632 54.0115 31.6949V31.6186H54.0496C54.0719 31.6191 54.0497 31.6724 54.0496 31.733V31.7944C54.0496 31.8933 54.049 31.931 53.9119 31.9767C53.6882 32.059 53.4484 32.0885 53.2116 32.0613C52.3964 32.0613 52.0146 31.6872 52.0146 30.9025V30.1407C51.9918 29.9794 52.0067 29.8145 52.0583 29.6599C52.11 29.5054 52.1971 29.365 52.3122 29.2497C52.4275 29.1345 52.5687 29.0475 52.7233 28.9958C52.8777 28.9443 53.0421 28.9293 53.2032 28.9521ZM53.9901 31.8651C53.9721 31.8909 53.939 31.9141 53.8738 31.9395C53.6631 32.022 53.4378 32.0602 53.2116 32.0529C52.9604 32.0529 52.7501 32.0185 52.5801 31.9469C52.7515 32.0229 52.9641 32.0613 53.219 32.0613C53.4431 32.074 53.6672 32.0347 53.8738 31.9469C53.9378 31.9213 53.9714 31.8966 53.9901 31.8651ZM54.0096 31.786C54.0097 31.7813 54.0115 31.7762 54.0115 31.7711V31.7563C54.0115 31.7669 54.0098 31.7767 54.0096 31.786Z" fill="#009EDB"/>
<path fill-rule="evenodd" clip-rule="evenodd" d="M62.7959 29.7138C62.8615 29.7138 62.8997 29.7145 62.9214 29.7343C62.9049 29.7322 62.8851 29.7298 62.861 29.7297C62.9069 29.7401 62.9177 29.7694 62.9177 29.8664L62.9484 31.1852V29.8664C62.9484 29.7914 62.9426 29.7536 62.9214 29.7343C63.0014 29.7445 63.0014 29.779 63.0014 29.8664V31.1852C63.0015 31.4715 63.0942 31.6279 63.3148 31.6939C63.1383 31.6578 63.0314 31.577 62.9819 31.4307C63.0387 31.6008 63.1737 31.6943 63.4274 31.7181C63.3865 31.7122 63.3493 31.7043 63.3148 31.6939C63.3865 31.7086 63.4692 31.7181 63.565 31.7181C64.0068 31.7181 64.175 31.5734 64.1751 31.1852V29.8664C64.1751 29.7523 64.1753 29.7138 64.3351 29.7138H64.3807C64.4502 29.7138 64.4883 29.7145 64.509 29.7343C64.5017 29.7333 64.4937 29.733 64.4849 29.7325C64.5232 29.7451 64.5332 29.7761 64.5332 29.8664L64.5286 29.779C64.5251 29.7579 64.5191 29.7439 64.509 29.7343C64.5862 29.745 64.5862 29.7801 64.5862 29.8664V31.1694C64.5974 31.2857 64.5834 31.4031 64.5453 31.5135C64.5072 31.6238 64.4462 31.7247 64.3658 31.8093C64.2841 31.8747 64.1923 31.9266 64.0952 31.9646C64.0934 31.9653 64.0914 31.9657 64.0896 31.9665C63.9266 32.0409 63.7465 32.076 63.565 32.0613C63.4028 32.0613 63.2609 32.0407 63.1391 32.0027C62.7494 31.8978 62.5672 31.6262 62.5671 31.1852V29.8664C62.5671 29.7524 62.5675 29.7222 62.7196 29.7222H62.7652C62.782 29.7222 62.7973 29.7228 62.8108 29.7231L62.7429 29.7138H62.7959ZM64.5295 31.2875C64.512 31.5469 64.4248 31.7424 64.2551 31.8716C64.2739 31.8585 64.2939 31.8469 64.3119 31.8325C64.3922 31.7462 64.4533 31.6437 64.4914 31.5321C64.5294 31.4207 64.5439 31.3025 64.5332 31.1852L64.5295 31.2875Z" fill="#009EDB"/>
<path fill-rule="evenodd" clip-rule="evenodd" d="M68.5176 29.6385C68.657 29.6378 68.7964 29.6579 68.9296 29.699C69.0436 29.6991 69.0663 29.7756 69.0663 29.8822V30.0496C69.0614 30.0522 69.0558 30.0533 69.0505 30.0552C69.0376 30.0902 69.0036 30.0955 68.9138 30.0719C68.7875 30.0239 68.6527 30.0012 68.5176 30.004C68.3901 30.004 68.2833 30.016 68.1949 30.0412C67.9651 30.1228 67.8629 30.3048 67.8628 30.6207V31.0708C67.8629 31.5277 68.0608 31.6949 68.5864 31.6949C68.7261 31.7006 68.8655 31.6803 68.9975 31.6344C69.0156 31.6267 69.0355 31.6223 69.0552 31.6223C69.0747 31.6224 69.0939 31.6267 69.1119 31.6344V31.6651C69.1119 31.6558 69.0922 31.6565 69.0663 31.6595C69.094 31.6754 69.1044 31.7142 69.1045 31.7786V31.8251C69.1045 31.8676 69.1018 31.8976 69.0896 31.9218C69.0994 31.9094 69.1044 31.8956 69.1073 31.8781C69.0962 31.9474 69.0598 31.9924 68.9677 31.9925C68.9384 32.0005 68.9082 32.0067 68.8785 32.013C68.8028 32.0325 68.7257 32.0449 68.6478 32.0502C68.6072 32.0551 68.566 32.0597 68.525 32.0613C68.3781 32.0714 68.2325 32.0501 68.0954 32.0037C67.6744 31.8946 67.4741 31.5991 67.4741 31.0931V30.6365C67.4741 30.3242 67.56 30.0797 67.7391 29.9157C67.7447 29.9094 67.7502 29.9032 67.7559 29.8971C67.9658 29.7139 68.2395 29.6213 68.5176 29.6385ZM67.9391 30.2031C67.858 30.3075 67.8247 30.4539 67.8247 30.6439V31.0931C67.8247 31.5579 68.0302 31.7256 68.5483 31.7256C68.561 31.726 68.5737 31.7246 68.5864 31.7246C68.066 31.7229 67.8321 31.5406 67.8321 31.0857V30.6365C67.8321 30.4362 67.8717 30.2869 67.9577 30.1826L67.9391 30.2031ZM68.9138 29.7371C68.925 29.7371 68.9358 29.7377 68.9454 29.739C68.9319 29.7338 68.9169 29.7272 68.8989 29.7222C68.8767 29.7184 68.8543 29.7156 68.832 29.7129C68.8595 29.7201 68.8869 29.7278 68.9138 29.7371Z" fill="#009EDB"/>
<path fill-rule="evenodd" clip-rule="evenodd" d="M61.691 29.6385C61.8278 29.6372 61.9642 29.6574 62.0946 29.699C62.2165 29.699 62.2397 29.7755 62.2397 29.8822V30.0496C62.2347 30.0522 62.2291 30.0533 62.2239 30.0552C62.2109 30.0902 62.177 30.0956 62.0872 30.0719C61.9606 30.0246 61.826 30.0019 61.691 30.004C61.5553 30.004 61.4431 30.0181 61.3515 30.0468C61.1311 30.1307 61.0363 30.3111 61.0362 30.6207V31.0708C61.0363 31.5277 61.2343 31.6949 61.7979 31.6949C61.9376 31.7006 62.077 31.6803 62.209 31.6344H62.316C62.3388 31.6344 62.3541 31.6877 62.3541 31.7563V31.8018C62.3541 31.8929 62.3531 31.9309 62.2583 31.9599C62.2445 31.9677 62.2269 31.9731 62.2044 31.9795L62.2025 31.9804C62.1907 31.9837 62.1781 31.9894 62.1634 31.9925C62.1059 32.0108 62.0469 32.0233 61.9876 32.0334C61.8901 32.0521 61.7907 32.0629 61.691 32.0613C61.5081 32.072 61.3275 32.0363 61.1627 31.9627C61.2197 31.9844 61.2815 32.0018 61.3487 32.0148C60.9003 31.9158 60.6856 31.6172 60.6856 31.0931L60.6707 30.9146V31.0624C60.6668 31.0998 60.6646 31.1376 60.6651 31.175C60.6639 31.1484 60.6623 31.121 60.6623 31.0931V30.8141L60.6474 30.6365C60.6474 30.3248 60.7331 30.0806 60.9116 29.9166C60.9175 29.9101 60.9232 29.9034 60.9292 29.8971C61.1392 29.7139 61.4129 29.6213 61.691 29.6385ZM62.076 31.6921C61.9724 31.7154 61.8662 31.7265 61.7598 31.7256C61.8645 31.7293 61.969 31.7186 62.0704 31.6939L62.076 31.6921ZM60.9981 31.0931C60.9981 31.4998 61.1553 31.6787 61.5673 31.7172L61.7598 31.7256C61.2999 31.7256 61.0617 31.5858 61.0092 31.2447L60.9981 31.0931ZM62.0872 29.7371C62.0949 29.7371 62.1025 29.7374 62.1095 29.738C62.0964 29.7331 62.082 29.727 62.0648 29.7222C62.0511 29.7199 62.0368 29.7194 62.023 29.7176C62.0445 29.7236 62.066 29.7298 62.0872 29.7371Z" fill="#009EDB"/>
<path d="M99.5583 28.7922C99.6511 28.7922 99.6898 28.7926 99.7034 28.8638C99.6994 28.8446 99.6939 28.8314 99.6792 28.8229C99.6973 28.8429 99.7025 28.8806 99.7025 28.9521V30.0263C99.7903 29.9114 99.9072 29.8217 100.041 29.7669C100.175 29.712 100.321 29.6937 100.464 29.7138C101.024 29.7138 101.314 29.9773 101.318 30.5184V30.4765C101.318 30.3752 101.308 30.2833 101.288 30.2012L101.303 30.2496C101.323 30.3332 101.333 30.4266 101.333 30.5295V31.9013C101.328 31.9133 101.322 31.9228 101.317 31.932C101.316 32.0268 101.304 32.0455 101.173 32.0455H101.112C101.023 32.0455 100.987 32.0456 100.974 31.9878C100.941 31.9726 100.929 31.9369 100.929 31.8474V30.5295C100.929 30.1562 100.761 30.0115 100.342 30.0115C100.244 30.0115 100.157 30.0211 100.082 30.0412C99.8494 30.1128 99.7332 30.2908 99.7332 30.6058V31.8632C99.7332 31.9368 99.7327 31.9735 99.7006 31.9916C99.6865 32.0376 99.6526 32.0381 99.5732 32.0381H99.5202C99.423 32.0381 99.3912 32.0311 99.3807 31.9897C99.4039 32.0142 99.4424 32.0148 99.5044 32.0148H99.5583C99.6074 32.0148 99.64 32.0102 99.6625 32.0018C99.6434 32.0046 99.619 32.0074 99.5881 32.0074H99.5351C99.4133 32.0074 99.3826 32.0076 99.3826 31.8632L99.3751 31.1154V31.9013C99.3751 31.9412 99.3756 31.9695 99.3807 31.9897C99.3612 31.9692 99.3519 31.9325 99.3519 31.8632V28.9521C99.3519 28.8152 99.3523 28.7922 99.5044 28.7922H99.5583Z" fill="#009EDB"/>
<path d="M54.5165 28.8238C54.4994 28.847 54.4988 28.8861 54.4988 28.9521V31.8632C54.4989 32.0152 54.5295 32.0148 54.6513 32.0148H54.7044C54.7524 32.0148 54.7851 32.0107 54.8076 32.0027C54.7928 32.0377 54.7592 32.0381 54.682 32.0381H54.6281C54.4838 32.038 54.4839 32.0228 54.4839 31.9013V28.9521C54.4839 28.8767 54.4923 28.841 54.5165 28.8238Z" fill="#009EDB"/>
<path d="M76.2817 29.6683C76.4174 29.6543 76.5547 29.6672 76.6854 29.7064C76.8161 29.7456 76.9378 29.8107 77.0435 29.8971C77.1247 29.983 77.1873 30.085 77.2267 30.1965C77.266 30.308 77.2815 30.4266 77.2722 30.5444V31.8632C77.2487 31.9339 77.2303 31.9667 77.1969 31.9832C77.1779 32.0016 77.1427 32.0074 77.0741 32.0074H77.0435C76.9577 32.0074 76.9186 32.0076 76.9021 31.9655C76.8886 31.9434 76.8835 31.9071 76.8835 31.8474V30.5444C76.8834 30.1561 76.7235 30.0115 76.2817 30.0115C75.84 30.0115 75.6643 30.1561 75.6642 30.5444C75.6613 30.5072 75.6624 30.4722 75.6632 30.4393C75.6598 30.4724 75.6567 30.5074 75.6567 30.5444L75.6344 31.8632C75.6344 31.9848 75.6339 32.0074 75.4893 32.0074H75.4363C75.4085 32.0074 75.3849 32.0076 75.3656 32.0055C75.3886 32.0122 75.4185 32.0148 75.4586 32.0148H75.5126C75.6219 32.0148 75.6518 31.9993 75.6605 31.9451C75.6533 32.0302 75.6238 32.0306 75.52 32.0306H75.4205C75.276 32.0306 75.2763 32.0148 75.2763 31.893V30.5751C75.269 30.4693 75.282 30.3633 75.3145 30.2626C75.3822 29.9863 75.5602 29.8079 75.8465 29.7269C75.9704 29.688 76.1156 29.6683 76.2817 29.6683Z" fill="#009EDB"/>
<path fill-rule="evenodd" clip-rule="evenodd" d="M87.276 29.6683C87.4117 29.6543 87.5489 29.6672 87.6796 29.7064C87.8103 29.7456 87.932 29.8107 88.0377 29.8971C88.1201 29.9821 88.1833 30.084 88.2228 30.1956C88.2622 30.3073 88.2772 30.4265 88.2665 30.5444V31.8632C88.2572 31.9187 88.2466 31.9506 88.2302 31.9702C88.2142 31.9993 88.1784 32.0074 88.0916 32.0074H88.0377C87.9085 32.0074 87.8852 32.0075 87.8852 31.8632V30.537C87.8829 30.1542 87.7149 30.0115 87.276 30.0115C86.9012 30.0115 86.7193 30.1157 86.6724 30.3844C86.6712 30.3912 86.6696 30.3979 86.6686 30.4049C86.6665 30.4196 86.6654 30.4348 86.664 30.4505C86.6615 30.4803 86.6593 30.5115 86.6593 30.5444V31.8632C86.6593 31.8879 86.6578 31.9084 86.6565 31.9255C86.6517 31.9956 86.6283 32.0148 86.5068 32.0148H86.4529C86.3962 32.0148 86.3586 32.0149 86.3347 31.9962C86.3427 31.9968 86.3513 31.9978 86.3608 31.9981C86.3218 31.9861 86.3087 31.9556 86.3087 31.8632V30.5444C86.3088 29.9976 86.6009 29.7087 87.1727 29.6785C87.1401 29.6773 87.1075 29.6776 87.0751 29.6794C87.1382 29.6724 87.2052 29.6683 87.276 29.6683ZM87.9121 29.8329C87.9799 29.8772 88.0371 29.9304 88.0842 29.9929C88.0628 29.9623 88.0408 29.9321 88.0154 29.9045C87.9826 29.8783 87.9477 29.8549 87.9121 29.8329ZM87.3476 29.6776C87.4762 29.6824 87.5914 29.6998 87.6926 29.7306C87.6805 29.7266 87.6686 29.7221 87.6564 29.7185C87.556 29.6894 87.4517 29.6756 87.3476 29.6776Z" fill="#009EDB"/>
<path fill-rule="evenodd" clip-rule="evenodd" d="M96.5635 29.6683C96.6992 29.6543 96.8365 29.6672 96.9672 29.7064C97.0979 29.7456 97.2196 29.8107 97.3253 29.8971C97.4077 29.9821 97.4709 30.084 97.5103 30.1956C97.5498 30.3073 97.5648 30.4265 97.5541 30.5444V31.8632C97.5448 31.9187 97.5342 31.9506 97.5178 31.9702C97.5018 31.9993 97.466 32.0074 97.3792 32.0074H97.3253C97.1961 32.0074 97.1728 32.0075 97.1727 31.8632V30.537C97.1705 30.1542 97.0025 30.0115 96.5635 30.0115C96.1888 30.0115 96.0069 30.1157 95.9599 30.3844C95.9588 30.3912 95.9572 30.3979 95.9562 30.4049C95.9541 30.4196 95.9529 30.4348 95.9516 30.4505C95.9491 30.4803 95.9469 30.5115 95.9469 30.5444V31.8632C95.9469 31.8879 95.9454 31.9084 95.9441 31.9255C95.9392 31.9956 95.9159 32.0148 95.7944 32.0148H95.7404C95.6825 32.0148 95.6442 32.0152 95.6205 31.9953C95.6288 31.9964 95.6377 31.9967 95.6474 31.9971C95.6094 31.9849 95.5963 31.9547 95.5963 31.8632V30.5444C95.5964 29.9976 95.8885 29.7087 96.4603 29.6785C96.4276 29.6773 96.3951 29.6776 96.3626 29.6794C96.4258 29.6724 96.4927 29.6683 96.5635 29.6683ZM97.1997 29.8329C97.2675 29.8772 97.3247 29.9304 97.3718 29.9929C97.3503 29.9623 97.3283 29.9321 97.3029 29.9045C97.2702 29.8783 97.2353 29.8549 97.1997 29.8329ZM96.6352 29.6776C96.7638 29.6824 96.879 29.6998 96.9802 29.7306C96.9681 29.7266 96.9562 29.7221 96.9439 29.7185C96.8436 29.6894 96.7393 29.6756 96.6352 29.6776Z" fill="#009EDB"/>
<path fill-rule="evenodd" clip-rule="evenodd" d="M105.295 29.6683C105.431 29.6543 105.568 29.6673 105.699 29.7064C105.829 29.7456 105.951 29.8107 106.057 29.8971C106.139 29.9821 106.202 30.084 106.242 30.1956C106.281 30.3073 106.296 30.4265 106.285 30.5444V31.8632C106.277 31.8882 106.268 31.9079 106.26 31.9246C106.255 31.9928 106.232 32.0073 106.111 32.0074H106.057C106.011 32.0074 105.979 32.0046 105.956 31.9981C105.895 31.9911 105.882 31.9621 105.882 31.8474V30.5444C105.882 30.1562 105.714 30.0116 105.273 30.0115C105.162 30.0115 105.068 30.0199 104.99 30.0394C104.757 30.1075 104.678 30.2739 104.678 30.5444L104.655 31.84V31.8632C104.655 31.9848 104.655 32.0148 104.503 32.0148H104.472C104.417 32.0148 104.38 32.0142 104.357 31.9971C104.365 31.9976 104.374 31.999 104.384 31.999C104.342 31.9882 104.328 31.9593 104.328 31.8632V30.5444C104.328 30.0019 104.609 29.7135 105.177 29.6794C105.153 29.6784 105.128 29.6779 105.104 29.6785C105.164 29.6722 105.228 29.6683 105.295 29.6683ZM105.766 30.1268C105.851 30.2148 105.889 30.3447 105.889 30.5295V31.8474C105.889 31.9173 105.89 31.9513 105.917 31.9683C105.908 31.947 105.904 31.9142 105.904 31.8632V30.5444C105.904 30.3518 105.867 30.2151 105.766 30.1268ZM105.511 29.6887C105.48 29.6843 105.449 29.6811 105.418 29.6794C105.45 29.6815 105.481 29.685 105.511 29.6887Z" fill="#009EDB"/>
<path fill-rule="evenodd" clip-rule="evenodd" d="M54.7044 28.7922C54.8262 28.7922 54.8569 28.7924 54.8569 28.9521V29.9333C54.8543 29.9364 54.8519 29.9395 54.8494 29.9426V30.0263C54.9377 29.9122 55.0545 29.8235 55.188 29.7687C55.3217 29.7139 55.4679 29.6944 55.6112 29.7138C55.8761 29.7138 56.0879 29.7692 56.2352 29.8878C56.092 29.7673 55.8863 29.7064 55.6186 29.7064C55.4761 29.6862 55.3309 29.7041 55.1973 29.7576C55.0636 29.811 54.9461 29.8985 54.8569 30.0115V29.9333C54.9364 29.8371 55.0375 29.7606 55.1536 29.7129C55.2885 29.6576 55.437 29.642 55.5805 29.6683C55.876 29.6683 56.0954 29.7429 56.238 29.8906C56.2411 29.8931 56.2443 29.8954 56.2473 29.898C56.2565 29.9062 56.2656 29.9144 56.2743 29.9231C56.3563 30.0023 56.4135 30.105 56.4445 30.2338C56.4479 30.2468 56.4509 30.2602 56.4538 30.2737C56.4549 30.2796 56.4565 30.2854 56.4575 30.2914C56.4718 30.3641 56.4798 30.4433 56.4798 30.5295V31.9013C56.4721 32 56.4185 31.9999 56.2892 31.9999H56.2287C56.1068 31.9999 56.0836 31.9998 56.0836 31.8474V30.5295C56.0836 30.1562 55.9084 30.0115 55.4893 30.0115C55.3939 30.0115 55.3094 30.0213 55.2354 30.0403C55.0003 30.1114 54.8876 30.2897 54.8876 30.6058V31.8632C54.8876 31.9848 54.8871 32.0074 54.7425 32.0074H54.6895C54.5753 32.0074 54.5444 32.0076 54.5444 31.8632L54.5063 28.9521C54.5063 28.8736 54.5063 28.8341 54.5388 28.8154C54.5303 28.8177 54.5227 28.8193 54.5165 28.8238C54.5348 28.7989 54.5725 28.7922 54.6513 28.7922H54.7044ZM55.892 30.0682C56.0291 30.151 56.0911 30.2948 56.0911 30.5146V31.8474C56.0911 31.9487 56.0914 31.9749 56.1701 31.9813C56.1322 31.9691 56.1218 31.9394 56.1218 31.8474V30.5295C56.1218 30.2943 56.0549 30.1454 55.892 30.0682Z" fill="#009EDB"/>
<path d="M92.6173 29.7138C92.7312 29.7138 92.7689 29.7145 92.7689 29.8664V31.8632C92.7689 31.9172 92.7627 31.9495 92.7484 31.9692C92.7335 31.9989 92.7004 32.0074 92.6173 32.0074H92.5634C92.4784 32.0074 92.443 32.0075 92.4285 31.9665C92.4158 31.9445 92.4108 31.9083 92.4108 31.8474V29.8664C92.4108 29.8031 92.4118 29.7638 92.4378 29.7408C92.4297 29.7518 92.4256 29.767 92.4229 29.7892C92.4311 29.7378 92.4594 29.7222 92.5634 29.7222H92.5922L92.5634 29.7138H92.6173Z" fill="#009EDB"/>
<path d="M105.104 29.6785C104.583 29.7335 104.32 30.0255 104.32 30.5444V31.8632C104.32 31.9419 104.331 31.9788 104.357 31.9971C104.274 31.9933 104.244 31.9718 104.244 31.8632V30.5444C104.236 30.4254 104.253 30.3063 104.295 30.1947C104.337 30.0829 104.403 29.9811 104.488 29.8971C104.666 29.7594 104.882 29.6842 105.104 29.6785Z" fill="#009EDB"/>
<path d="M87.0751 29.6794C86.5608 29.7371 86.3005 30.0289 86.3003 30.5444V31.8632C86.3004 31.9379 86.31 31.976 86.3329 31.9953C86.2477 31.9892 86.2473 31.9651 86.2473 31.8632V30.5444C86.2391 30.4255 86.2565 30.3062 86.2985 30.1947C86.3405 30.083 86.4062 29.9811 86.491 29.8971C86.6602 29.7661 86.8643 29.6914 87.0751 29.6794Z" fill="#009EDB"/>
<path d="M96.3626 29.6794C95.8484 29.7371 95.588 30.0289 95.5879 30.5444V31.8632C95.5879 31.9379 95.5975 31.976 95.6205 31.9953C95.5588 31.9868 95.535 31.9587 95.5349 31.8632V30.5444C95.5267 30.4255 95.5441 30.3062 95.586 30.1947C95.6281 30.083 95.6938 29.9811 95.7786 29.8971C95.9477 29.7661 96.1518 29.6914 96.3626 29.6794Z" fill="#009EDB"/>
<path d="M60.6753 31.2996C60.6837 31.3581 60.6971 31.4163 60.7163 31.4726C60.761 31.604 60.8336 31.7245 60.9292 31.8251C61.0015 31.8811 61.0804 31.926 61.1627 31.9627C60.8776 31.8546 60.7188 31.6383 60.6753 31.2996Z" fill="#009EDB"/>
<path d="M75.6632 31.9004C75.6629 31.9176 75.6625 31.9324 75.6605 31.9451C75.6615 31.9322 75.6631 31.9175 75.6632 31.9004Z" fill="#009EDB"/>
<path d="M75.6642 31.893C75.6642 31.8954 75.6633 31.8981 75.6632 31.9004C75.6635 31.8891 75.6642 31.8767 75.6642 31.8632V31.893Z" fill="#009EDB"/>
<path d="M69.111 31.8307C69.1107 31.8487 69.1096 31.8642 69.1073 31.8781C69.1096 31.8633 69.1108 31.8475 69.111 31.8307Z" fill="#009EDB"/>
<path d="M77.7875 31.7349C77.8203 31.7794 77.8617 31.8167 77.9121 31.84C77.9061 31.8435 77.9003 31.8473 77.8945 31.8511C77.8555 31.8255 77.8201 31.7948 77.7959 31.7544C77.7922 31.7483 77.7907 31.7411 77.7875 31.7349Z" fill="#009EDB"/>
<path d="M69.1119 31.8251C69.1119 31.827 69.111 31.8288 69.111 31.8307C69.1111 31.8217 69.1119 31.812 69.1119 31.8018V31.8251Z" fill="#009EDB"/>
<path d="M95.122 30.2496C95.1333 30.3079 95.1387 30.3711 95.1387 30.4384V31.3601C95.1367 31.3905 95.1337 31.42 95.1294 31.4484C95.1338 31.4065 95.1353 31.3642 95.1313 31.3219V30.323C95.1297 30.2984 95.1263 30.2739 95.122 30.2496Z" fill="#009EDB"/>
<path d="M78.2358 29.7473C78.1511 29.7816 78.0705 29.8273 77.9958 29.8822C77.9118 29.956 77.8453 30.0475 77.8005 30.15C77.7557 30.2528 77.7341 30.3645 77.7373 30.4765V30.537C77.7217 30.6745 77.7498 30.8137 77.8182 30.9341C77.8302 30.9553 77.8449 30.975 77.8591 30.9945C77.8359 30.9662 77.8142 30.9365 77.7959 30.9043C77.7274 30.7839 77.6985 30.6439 77.714 30.5063V30.4458C77.714 30.1077 77.9036 29.8581 78.2358 29.7473Z" fill="#009EDB"/>
<path d="M95.081 30.1138C95.0996 30.1576 95.1136 30.203 95.122 30.2496C95.1125 30.2011 95.0983 30.156 95.081 30.1138Z" fill="#009EDB"/>
<path d="M100.473 29.6683C100.917 29.6684 101.185 29.8346 101.279 30.1696C101.171 29.8611 100.901 29.7065 100.473 29.7064C100.33 29.6861 100.184 29.7041 100.05 29.7576C99.9168 29.8111 99.7991 29.8985 99.7099 30.0115V29.9808C99.7977 29.8659 99.9147 29.7762 100.048 29.7213C100.182 29.6664 100.329 29.648 100.473 29.6683Z" fill="#009EDB"/>
<path d="M103.691 30.0626C103.708 30.088 103.723 30.1159 103.739 30.1445C103.737 30.1454 103.735 30.1473 103.733 30.1482C103.721 30.1178 103.705 30.0901 103.691 30.0626Z" fill="#009EDB"/>
<path d="M95.001 29.9724C95.0163 29.9922 95.0302 30.013 95.0429 30.0347L95.0754 30.0998C95.0542 30.0527 95.028 30.0081 94.9964 29.9678L95.001 29.9724Z" fill="#009EDB"/>
<path d="M94.8876 29.8589C94.9089 29.8757 94.9291 29.8937 94.948 29.9129C94.9251 29.8903 94.8997 29.8699 94.8727 29.8506C94.8776 29.8534 94.8827 29.856 94.8876 29.8589Z" fill="#009EDB"/>
<path d="M92.5634 29.7138C92.4957 29.7139 92.4587 29.7224 92.4378 29.7408C92.4569 29.7148 92.4935 29.7138 92.5634 29.7138Z" fill="#009EDB"/>
<path fill-rule="evenodd" clip-rule="evenodd" d="M94.3007 28.5252C94.3459 28.5215 94.3913 28.5287 94.4337 28.5448C94.4762 28.5609 94.5148 28.5863 94.5462 28.6192C94.5776 28.652 94.6018 28.6913 94.616 28.7345C94.6236 28.7577 94.6272 28.7819 94.629 28.8061C94.6418 28.8487 94.6481 28.893 94.6439 28.9372C94.637 28.9883 94.6198 29.0379 94.5937 29.0823C94.5676 29.1266 94.5325 29.165 94.4914 29.1958C94.4281 29.2363 94.3822 29.2992 94.3621 29.3716C94.3603 29.3951 94.3499 29.4172 94.3333 29.4339C94.3165 29.4507 94.2937 29.461 94.27 29.4627L94.2096 29.4702C94.1588 29.4702 94.135 29.4691 94.1203 29.4534C94.1351 29.4532 94.1561 29.4553 94.1863 29.4553C94.2074 29.4522 94.227 29.4424 94.2421 29.4274C94.2522 29.4173 94.2586 29.4044 94.2635 29.3911C94.2606 29.3918 94.2581 29.3935 94.2551 29.3939L94.2096 29.432C94.1258 29.432 94.1178 29.4323 94.1026 29.3409C94.1002 29.3264 94.1002 29.3119 94.1026 29.2972C94.0938 29.324 94.0904 29.3506 94.0952 29.379C94.1019 29.4196 94.1085 29.4409 94.1203 29.4534C94.0829 29.4539 94.0848 29.4478 94.0794 29.3716C94.0731 29.2841 94.1087 29.2327 94.1761 29.1623C94.2106 29.119 94.2548 29.0699 94.3081 29.0135C94.3215 29.0024 94.3313 28.9879 94.3407 28.9735C94.3455 28.9616 94.3516 28.9501 94.3537 28.9372C94.3537 28.8733 94.3426 28.8411 94.3258 28.8247C94.3595 28.839 94.3611 28.8686 94.3612 28.927C94.3632 28.92 94.3684 28.9138 94.3695 28.9066C94.3695 28.8229 94.3693 28.7848 94.2858 28.7847C94.2182 28.7685 94.147 28.7685 94.0794 28.7847C94.0341 28.7847 94.0013 28.7832 93.9733 28.755V28.808C93.985 28.8242 93.9973 28.8346 94.0096 28.8424C93.9618 28.8506 93.9119 28.8432 93.9119 28.7847C93.8913 28.7229 93.9146 28.681 93.9584 28.6731C93.9597 28.6236 93.968 28.5987 94.0263 28.5792C94.1128 28.5417 94.2065 28.5228 94.3007 28.5252ZM94.5109 29.0814C94.4777 29.1135 94.4444 29.1454 94.4151 29.1763C94.451 29.1522 94.483 29.1232 94.5081 29.0879C94.5094 29.086 94.5096 29.0833 94.5109 29.0814Z" fill="#009EDB"/>
<path fill-rule="evenodd" clip-rule="evenodd" d="M73.7827 28.8377C73.8671 28.8377 73.9252 28.8527 73.9789 28.8963C74.0427 28.927 74.0953 28.9873 74.164 29.0972L74.3388 29.3716V29.4553C74.3387 29.4704 74.2851 29.4553 74.2319 29.4553C74.2034 29.4596 74.1752 29.4549 74.1482 29.446C74.1633 29.4479 74.1785 29.4498 74.1938 29.4479H74.2319C74.1929 29.4542 74.1529 29.4467 74.1184 29.4274C74.0838 29.408 74.0562 29.3776 74.0412 29.3409L73.9352 29.1577C73.8907 29.0821 73.8461 29.0518 73.8031 29.0647C73.8078 29.066 73.8133 29.0668 73.8189 29.0693C73.7852 29.0721 73.7502 29.1042 73.7138 29.166L73.6153 29.3409C73.6002 29.3796 73.5722 29.4122 73.5362 29.433C73.5003 29.4537 73.4582 29.4615 73.4172 29.4553H73.3251C73.3239 29.455 73.3255 29.453 73.3251 29.4506C73.3353 29.4499 73.3478 29.4479 73.3632 29.4479C73.369 29.4484 73.3751 29.4459 73.3809 29.446C73.315 29.4443 73.3098 29.4329 73.3558 29.3409L73.3697 29.3009L73.3251 29.3716C73.3251 29.4028 73.3227 29.4386 73.3251 29.4506C73.2802 29.4539 73.2795 29.4599 73.2795 29.4479V29.3716L73.4292 29.1372L73.4553 29.0665C73.5695 28.8991 73.6303 28.8377 73.7827 28.8377ZM74.2775 29.4404C74.2641 29.4445 74.2483 29.4479 74.2319 29.4479H74.2775C74.281 29.4479 74.2782 29.448 74.2775 29.4404Z" fill="#009EDB"/>
<path fill-rule="evenodd" clip-rule="evenodd" d="M66.0185 28.8377C66.0638 28.8377 66.1009 28.8431 66.1339 28.8535C66.2297 28.8708 66.291 28.9272 66.3766 29.074L66.4305 29.1986L66.5217 29.3409C66.526 29.3477 66.5271 29.3553 66.5301 29.3614L66.5366 29.3716C66.5367 29.4096 66.5822 29.4401 66.5366 29.4553C66.4914 29.4703 66.5135 29.4553 66.4603 29.4553C66.4343 29.459 66.4088 29.4546 66.384 29.4469C66.3969 29.4479 66.4102 29.4499 66.4231 29.4479H66.4603C66.4213 29.4541 66.3813 29.4467 66.3468 29.4274C66.3123 29.408 66.2856 29.3775 66.2706 29.3409L66.1636 29.1577C66.1624 29.1553 66.1602 29.1534 66.159 29.1512C66.1598 29.156 66.1636 29.1608 66.1636 29.166L66.2706 29.3409C66.2842 29.3789 66.3103 29.4112 66.345 29.432C66.3571 29.4393 66.3707 29.4428 66.384 29.4469C66.359 29.445 66.3344 29.4393 66.3124 29.4265C66.2791 29.407 66.2534 29.377 66.2399 29.3409L66.1329 29.1577C66.1108 29.1004 66.0755 29.0775 66.0501 29.0675C66.0536 29.067 66.0559 29.0665 66.0567 29.0665C66.0692 29.0665 66.0893 29.0725 66.1087 29.0833C66.0854 29.0631 66.0614 29.0566 66.0371 29.0637C66.041 29.0648 66.0454 29.0656 66.0501 29.0675C66.0308 29.0701 65.9756 29.085 65.9506 29.166L65.8437 29.3409C65.83 29.379 65.8031 29.4112 65.7683 29.432C65.7337 29.4527 65.693 29.4612 65.653 29.4553H65.5237C65.5161 29.4553 65.5237 29.4096 65.5237 29.3716L65.5963 29.2572L65.6911 29.0665C65.7977 28.899 65.8664 28.8378 66.0185 28.8377ZM66.5068 29.4395C66.4932 29.4438 66.4772 29.4479 66.4603 29.4479H66.5068C66.5101 29.4478 66.5076 29.4476 66.5068 29.4395Z" fill="#009EDB"/>
<path d="M73.8189 29.0693C73.8558 29.0663 73.8919 29.0984 73.9278 29.166L74.0338 29.3409C74.0489 29.3796 74.0769 29.4122 74.1128 29.433C74.1238 29.4393 74.1363 29.4421 74.1482 29.446C74.1248 29.4431 74.102 29.4372 74.0812 29.4255C74.047 29.4063 74.0201 29.3767 74.004 29.3409L73.8971 29.1577C73.8763 29.104 73.8438 29.0805 73.8189 29.0693Z" fill="#009EDB"/>
<path d="M53.9919 29.3335C53.9919 29.3395 53.9891 29.3452 53.9882 29.3511V29.3149C53.9891 29.3211 53.9919 29.3271 53.9919 29.3335Z" fill="#009EDB"/>
<path fill-rule="evenodd" clip-rule="evenodd" d="M92.5634 28.7615C92.6137 28.7615 92.6623 28.7787 92.7019 28.8089C92.7196 28.8193 92.7367 28.832 92.7512 28.847C92.7922 28.8896 92.8154 28.9469 92.8154 29.0061C92.8164 29.0356 92.8111 29.065 92.8005 29.0926C92.7899 29.1203 92.7737 29.1456 92.7531 29.167C92.7325 29.1883 92.7079 29.2056 92.6805 29.2172C92.6532 29.2288 92.6237 29.234 92.594 29.2339C92.5634 29.235 92.5324 29.2301 92.5038 29.2191C92.4842 29.2115 92.4666 29.2 92.4499 29.1874C92.4327 29.1775 92.4158 29.1663 92.4015 29.1521C92.3588 29.1092 92.3346 29.0508 92.3346 28.9903C92.3346 28.9297 92.3587 28.8712 92.4015 28.8284C92.4443 28.7856 92.5028 28.7615 92.5634 28.7615ZM92.5634 28.7698C92.5344 28.7699 92.5055 28.7755 92.4787 28.7866C92.4521 28.7977 92.4275 28.8136 92.4071 28.834C92.3867 28.8544 92.3708 28.879 92.3597 28.9056C92.3486 28.9324 92.343 28.9613 92.3429 28.9903C92.3429 29.0193 92.3486 29.0481 92.3597 29.0749C92.3685 29.0961 92.3812 29.1151 92.3959 29.1326C92.3882 29.1209 92.3819 29.1083 92.3764 29.0954C92.3645 29.0672 92.3578 29.0366 92.3578 29.0061C92.3598 28.9448 92.3853 28.886 92.4294 28.8433C92.4735 28.8007 92.5327 28.7772 92.594 28.7773C92.6079 28.7777 92.6216 28.779 92.635 28.7819C92.6121 28.7741 92.5879 28.7698 92.5634 28.7698Z" fill="#009EDB"/>
<path d="M99.7034 28.8638C99.7079 28.885 99.7099 28.9132 99.7099 28.9521C99.7099 28.9144 99.7076 28.8858 99.7034 28.8638Z" fill="#009EDB"/>
<path fill-rule="evenodd" clip-rule="evenodd" d="M74.7583 28.2667H74.9183C74.9252 28.2685 74.9183 28.3212 74.9183 28.3811L74.6895 28.7615C74.6696 28.8101 74.6336 28.8515 74.5881 28.8777C74.5426 28.9038 74.4893 28.9138 74.4374 28.9066H74.2933C74.281 28.8748 74.281 28.8398 74.2933 28.808L74.4914 28.4341C74.4967 28.405 74.5083 28.3777 74.5249 28.3532C74.5414 28.3287 74.5622 28.3075 74.5872 28.2918C74.6122 28.276 74.6407 28.2654 74.6699 28.2611C74.6993 28.2568 74.7297 28.2588 74.7583 28.2667ZM74.8718 28.4034L74.6355 28.7922C74.6316 28.7994 74.6254 28.805 74.6206 28.8117C74.6355 28.7969 74.6486 28.78 74.6588 28.7615L74.8876 28.3811C74.8876 28.3707 74.8917 28.3618 74.8941 28.3532C74.888 28.3671 74.8819 28.3842 74.8718 28.4034Z" fill="#009EDB"/>
<path d="M94.2626 28.808C94.2857 28.808 94.3086 28.8079 94.3258 28.8247C94.3156 28.8204 94.3027 28.8171 94.2858 28.8154C94.2247 28.8172 94.1642 28.8327 94.11 28.861C94.068 28.861 94.0374 28.86 94.0096 28.8424C94.0178 28.841 94.026 28.84 94.0338 28.8377C94.1054 28.8056 94.185 28.7957 94.2626 28.808Z" fill="#009EDB"/>
</g>
<defs>
<clipPath id="clip0_14458_2624">
<rect width="123.81" height="32.381" fill="white" transform="translate(3.80952 3.80952)"/>
</clipPath>
</defs>
</svg>
