<svg width="20" height="20" viewBox="0 0 20 20" fill="none" xmlns="http://www.w3.org/2000/svg">
<path d="M17.575 5.81667C16.8667 5.03334 15.6833 4.64167 13.9667 4.64167H13.7667V4.60834C13.7667 3.20834 13.7667 1.47501 10.6333 1.47501H9.36667C6.23333 1.47501 6.23333 3.21667 6.23333 4.60834V4.65001H6.03333C4.30833 4.65001 3.13333 5.04167 2.425 5.82501C1.6 6.74167 1.625 7.97501 1.70833 8.81667L1.71667 8.87501L1.8 9.75001C1.80833 9.75834 1.825 9.77501 1.84167 9.78334C2.11667 9.96667 2.4 10.15 2.7 10.3167C2.81667 10.3917 2.94167 10.4583 3.06667 10.525C4.49167 11.3083 6.05833 11.8333 7.65 12.0917C7.725 12.875 8.06667 13.7917 9.89167 13.7917C11.7167 13.7917 12.075 12.8833 12.1333 12.075C13.8333 11.8 15.475 11.2083 16.9583 10.3417C17.0083 10.3167 17.0417 10.2917 17.0833 10.2667C17.4667 10.05 17.825 9.81667 18.175 9.55834C18.1917 9.55001 18.2083 9.53334 18.2167 9.51667L18.25 9.21667L18.2917 8.82501C18.3 8.77501 18.3 8.73334 18.3083 8.67501C18.375 7.83334 18.3583 6.68334 17.575 5.81667ZM10.9083 11.525C10.9083 12.4083 10.9083 12.5417 9.88333 12.5417C8.85833 12.5417 8.85833 12.3833 8.85833 11.5333V10.4833H10.9083V11.525ZM7.425 4.64167V4.60834C7.425 3.19167 7.425 2.66667 9.36667 2.66667H10.6333C12.575 2.66667 12.575 3.20001 12.575 4.60834V4.65001H7.425V4.64167Z" fill="#066CC4"/>
<path opacity="0.4" d="M17.0833 10.25C17.0417 10.275 17 10.3 16.9583 10.325C15.475 11.1917 13.8333 11.775 12.1333 12.0583C12.0667 12.8583 11.7167 13.775 9.89167 13.775C8.06667 13.775 7.71667 12.8667 7.65 12.075C6.05833 11.825 4.49167 11.3 3.06667 10.5083C2.94167 10.4417 2.81667 10.375 2.7 10.3C2.4 10.1333 2.11667 9.95 1.84167 9.76667C1.825 9.75833 1.80833 9.74167 1.8 9.73333L2.30833 15.1583C2.48333 16.8167 3.16667 18.525 6.83333 18.525H13.1833C16.85 18.525 17.5333 16.8167 17.7083 15.15L18.2333 9.5C18.225 9.51667 18.2083 9.53333 18.1917 9.54167C17.8333 9.8 17.4667 10.0417 17.0833 10.25Z" fill="#066CC4"/>
</svg>
