<svg width="20" height="20" viewBox="0 0 20 20" fill="none" xmlns="http://www.w3.org/2000/svg">
<path opacity="0.4" d="M10 18.3333C14.6024 18.3333 18.3333 14.6024 18.3333 9.99999C18.3333 5.39762 14.6024 1.66666 10 1.66666C5.39763 1.66666 1.66667 5.39762 1.66667 9.99999C1.66667 14.6024 5.39763 18.3333 10 18.3333Z" fill="#066CC4"/>
<path d="M13.0917 13.275C12.9833 13.275 12.875 13.25 12.775 13.1833L10.1917 11.6417C9.55 11.2583 9.075 10.4167 9.075 9.675V6.25833C9.075 5.91666 9.35833 5.63333 9.7 5.63333C10.0417 5.63333 10.325 5.91666 10.325 6.25833V9.675C10.325 9.975 10.575 10.4167 10.8333 10.5667L13.4167 12.1083C13.7167 12.2833 13.8083 12.6667 13.6333 12.9667C13.5083 13.1667 13.3 13.275 13.0917 13.275Z" fill="#066CC4"/>
</svg>
