<svg width="20" height="20" viewBox="0 0 20 20" fill="none" xmlns="http://www.w3.org/2000/svg">
<path opacity="0.4" d="M13.4917 1.66667H6.51667C3.48334 1.66667 1.675 3.475 1.675 6.50834V13.4833C1.675 16.5167 3.48334 18.325 6.51667 18.325H13.4917C16.525 18.325 18.3333 16.5167 18.3333 13.4833V6.50834C18.3333 3.475 16.525 1.66667 13.4917 1.66667Z" fill="#066CC4"/>
<path d="M6.81666 13.975C6.8 13.975 6.775 13.975 6.75834 13.975C5.95 13.9 5.19167 13.525 4.62501 12.925C3.29167 11.525 3.29167 9.25002 4.62501 7.85002L6.45001 5.93333C7.10001 5.25 7.97501 4.86667 8.90834 4.86667C9.84167 4.86667 10.7167 5.24167 11.3667 5.93333C12.7 7.33333 12.7 9.60833 11.3667 11.0083L10.4583 11.9667C10.2167 12.2167 9.82501 12.225 9.57501 11.9917C9.32501 11.75 9.31668 11.3583 9.55001 11.1083L10.4583 10.15C11.3417 9.225 11.3417 7.71668 10.4583 6.80001C9.63334 5.93334 8.18334 5.93334 7.35001 6.80001L5.52501 8.71666C4.64167 9.64166 4.64167 11.15 5.52501 12.0667C5.88334 12.45 6.36667 12.6833 6.875 12.7333C7.21667 12.7667 7.46667 13.075 7.43334 13.4167C7.40833 13.7333 7.13333 13.975 6.81666 13.975Z" fill="#066CC4"/>
<path d="M11.0917 15.1333C10.1583 15.1333 9.28334 14.7583 8.63334 14.0667C7.3 12.6667 7.3 10.3917 8.63334 8.99166L9.54167 8.03334C9.78333 7.78334 10.175 7.77498 10.425 8.00831C10.675 8.24998 10.6833 8.64167 10.45 8.89167L9.54167 9.85C8.65833 10.775 8.65833 12.2833 9.54167 13.2C10.3667 14.0667 11.8167 14.075 12.65 13.2L14.475 11.2833C15.3583 10.3583 15.3583 8.84998 14.475 7.93332C14.1167 7.54998 13.6333 7.31666 13.125 7.26666C12.7833 7.23333 12.5333 6.92499 12.5667 6.58332C12.6 6.24165 12.9 5.98333 13.25 6.025C14.0583 6.10833 14.8167 6.47498 15.3833 7.07498C16.7167 8.47498 16.7167 10.75 15.3833 12.15L13.5583 14.0667C12.9 14.7583 12.025 15.1333 11.0917 15.1333Z" fill="#066CC4"/>
</svg>
