<svg width="20" height="20" viewBox="0 0 20 20" fill="none" xmlns="http://www.w3.org/2000/svg">
<path d="M15.625 6.66666V8.41666C15.2583 8.36666 14.8417 8.34166 14.375 8.33332V6.66666C14.375 4.04166 13.6333 2.29166 10 2.29166C6.36667 2.29166 5.625 4.04166 5.625 6.66666V8.33332C5.15833 8.34166 4.74167 8.36666 4.375 8.41666V6.66666C4.375 4.24999 4.95833 1.04166 10 1.04166C15.0417 1.04166 15.625 4.24999 15.625 6.66666Z" fill="#066CC4"/>
<path opacity="0.4" d="M18.3333 12.5V14.1667C18.3333 17.5 17.5 18.3333 14.1667 18.3333H5.83333C2.5 18.3333 1.66667 17.5 1.66667 14.1667V12.5C1.66667 9.71668 2.25 8.67502 4.375 8.41668C4.74167 8.36668 5.15833 8.34168 5.625 8.33334H14.375C14.8417 8.34168 15.2583 8.36668 15.625 8.41668C17.75 8.67502 18.3333 9.71668 18.3333 12.5Z" fill="#066CC4"/>
<path d="M6.66667 14.1667C6.55833 14.1667 6.45 14.1417 6.35 14.1C6.24166 14.0583 6.15834 14 6.07501 13.925C5.92501 13.7667 5.83333 13.55 5.83333 13.3333C5.83333 13.225 5.85832 13.1167 5.89999 13.0167C5.94166 12.9167 6.00001 12.825 6.07501 12.7417C6.15834 12.6667 6.24166 12.6083 6.35 12.5667C6.65833 12.4333 7.02499 12.5083 7.25833 12.7417C7.33333 12.825 7.39168 12.9167 7.43334 13.0167C7.47501 13.1167 7.5 13.225 7.5 13.3333C7.5 13.55 7.40833 13.7667 7.25833 13.925C7.09999 14.075 6.88333 14.1667 6.66667 14.1667Z" fill="#066CC4"/>
<path d="M10 14.1667C9.775 14.1667 9.56667 14.075 9.40834 13.925C9.33334 13.8417 9.27499 13.75 9.23332 13.65C9.19166 13.55 9.16667 13.4417 9.16667 13.3333C9.16667 13.1083 9.25834 12.9 9.40834 12.7417C9.71667 12.4333 10.275 12.4333 10.5917 12.7417C10.7417 12.9 10.8333 13.1083 10.8333 13.3333C10.8333 13.4417 10.8083 13.55 10.7667 13.65C10.725 13.75 10.6667 13.8417 10.5917 13.925C10.4333 14.075 10.2167 14.1667 10 14.1667Z" fill="#066CC4"/>
<path d="M13.3333 14.1667C13.1167 14.1667 12.9 14.075 12.7417 13.925C12.5917 13.7667 12.5 13.5583 12.5 13.3333C12.5 13.1083 12.5917 12.9 12.7417 12.7417C13.0583 12.4333 13.6167 12.4333 13.925 12.7417C13.9583 12.7833 13.9917 12.825 14.025 12.875C14.0583 12.9167 14.0833 12.9667 14.1 13.0167C14.125 13.0667 14.1417 13.1167 14.15 13.1667C14.1583 13.225 14.1667 13.2833 14.1667 13.3333C14.1667 13.55 14.075 13.7667 13.925 13.925C13.7667 14.075 13.55 14.1667 13.3333 14.1667Z" fill="#066CC4"/>
</svg>
