<svg width="20" height="20" viewBox="0 0 20 20" fill="none" xmlns="http://www.w3.org/2000/svg">
<path d="M16.6667 5.62499C17.9323 5.62499 18.9583 4.59898 18.9583 3.33332C18.9583 2.06767 17.9323 1.04166 16.6667 1.04166C15.401 1.04166 14.375 2.06767 14.375 3.33332C14.375 4.59898 15.401 5.62499 16.6667 5.62499Z" fill="#066CC4"/>
<path opacity="0.4" d="M16.6667 6.66666C14.825 6.66666 13.3333 5.17499 13.3333 3.33332C13.3333 2.72499 13.5083 2.15832 13.8 1.66666H5.83333C3.53333 1.66666 1.66667 3.52499 1.66667 5.81666V10.8V11.6333C1.66667 13.925 3.53333 15.7833 5.83333 15.7833H7.08333C7.30833 15.7833 7.60833 15.9333 7.75 16.1167L9 17.775C9.55 18.5083 10.45 18.5083 11 17.775L12.25 16.1167C12.4083 15.9083 12.6583 15.7833 12.9167 15.7833H14.1667C16.4667 15.7833 18.3333 13.925 18.3333 11.6333V6.19999C17.8417 6.49166 17.275 6.66666 16.6667 6.66666Z" fill="#066CC4"/>
<path d="M10 10C9.53333 10 9.16667 9.62501 9.16667 9.16668C9.16667 8.70834 9.54167 8.33334 10 8.33334C10.4583 8.33334 10.8333 8.70834 10.8333 9.16668C10.8333 9.62501 10.4667 10 10 10Z" fill="#066CC4"/>
<path d="M13.3333 10C12.8667 10 12.5 9.62501 12.5 9.16668C12.5 8.70834 12.875 8.33334 13.3333 8.33334C13.7917 8.33334 14.1667 8.70834 14.1667 9.16668C14.1667 9.62501 13.8 10 13.3333 10Z" fill="#066CC4"/>
<path d="M6.66667 10C6.2 10 5.83333 9.62501 5.83333 9.16668C5.83333 8.70834 6.20833 8.33334 6.66667 8.33334C7.125 8.33334 7.5 8.70834 7.5 9.16668C7.5 9.62501 7.13333 10 6.66667 10Z" fill="#066CC4"/>
</svg>
