<svg width="20" height="20" viewBox="0 0 20 20" fill="none" xmlns="http://www.w3.org/2000/svg">
<path opacity="0.4" d="M9.13333 1.71667L4.55 3.43333C3.675 3.76667 2.95833 4.8 2.95833 5.74167V12.4917C2.95833 13.1667 3.4 14.0583 3.94167 14.4583L8.525 17.8833C9.33333 18.4917 10.6583 18.4917 11.4667 17.8833L16.05 14.4583C16.5917 14.05 17.0333 13.1667 17.0333 12.4917V5.74167C17.0333 4.80833 16.3167 3.76667 15.4417 3.44167L10.8583 1.725C10.3917 1.54167 9.60833 1.54167 9.13333 1.71667Z" fill="#066CC4"/>
<path d="M8.88333 11.8583C8.725 11.8583 8.56667 11.8 8.44167 11.675L7.1 10.3333C6.85833 10.0917 6.85833 9.69165 7.1 9.44999C7.34167 9.20832 7.74167 9.20832 7.98333 9.44999L8.88333 10.35L12.025 7.20832C12.2667 6.96665 12.6667 6.96665 12.9083 7.20832C13.15 7.44999 13.15 7.84999 12.9083 8.09165L9.325 11.675C9.2 11.8 9.04167 11.8583 8.88333 11.8583Z" fill="#066CC4"/>
</svg>
