<svg width="20" height="20" viewBox="0 0 20 20" fill="none" xmlns="http://www.w3.org/2000/svg">
<path d="M13.875 16.8334V17.075C12.6417 17.8667 11.1667 18.3333 9.58333 18.3333C7.975 18.3333 6.475 17.85 5.225 17.025V16.8334C5.225 14.8917 7.16667 13.3083 9.55 13.3083C11.9417 13.3083 13.875 14.8917 13.875 16.8334Z" fill="#066CC4"/>
<path opacity="0.4" d="M17.5 10.4167C17.5 13.2083 16.0583 15.6583 13.875 17.075V16.8333C13.875 14.8917 11.9417 13.3083 9.55 13.3083C7.16667 13.3083 5.225 14.8917 5.225 16.8333V17.025C3.08333 15.6083 1.66667 13.1833 1.66667 10.4167C1.66667 6.04167 5.20833 2.5 9.58333 2.5C10.675 2.5 11.7167 2.71666 12.6667 3.11666C12.5583 3.44999 12.5 3.8 12.5 4.16667C12.5 4.79167 12.675 5.38333 12.9833 5.88333C13.15 6.16666 13.3667 6.42498 13.6167 6.64164C14.2 7.17498 14.975 7.5 15.8333 7.5C16.2 7.5 16.55 7.44165 16.875 7.32498C17.275 8.27498 17.5 9.325 17.5 10.4167Z" fill="#066CC4"/>
<path d="M18.3083 1.94169C17.7083 1.25836 16.8167 0.833344 15.8333 0.833344C14.9 0.833344 14.05 1.2167 13.4417 1.8417C13.0917 2.20003 12.825 2.63334 12.6667 3.11667C12.5583 3.45 12.5 3.80001 12.5 4.16668C12.5 4.79168 12.675 5.38334 12.9833 5.88334C13.15 6.16667 13.3667 6.42499 13.6167 6.64165C14.2 7.17499 14.975 7.50001 15.8333 7.50001C16.2 7.50001 16.55 7.44166 16.875 7.32499C17.6417 7.08332 18.2833 6.55834 18.6833 5.88334C18.8583 5.60001 18.9917 5.275 19.0667 4.94167C19.1333 4.69167 19.1667 4.43334 19.1667 4.16668C19.1667 3.31668 18.8417 2.53336 18.3083 1.94169ZM17.075 4.77499H16.4583V5.42502C16.4583 5.76669 16.175 6.05002 15.8333 6.05002C15.4917 6.05002 15.2083 5.76669 15.2083 5.42502V4.77499H14.5917C14.25 4.77499 13.9667 4.49166 13.9667 4.14999C13.9667 3.80833 14.25 3.52499 14.5917 3.52499H15.2083V2.93336C15.2083 2.59169 15.4917 2.30836 15.8333 2.30836C16.175 2.30836 16.4583 2.59169 16.4583 2.93336V3.52499H17.075C17.4167 3.52499 17.7 3.80833 17.7 4.14999C17.7 4.49166 17.425 4.77499 17.075 4.77499Z" fill="#066CC4"/>
<path d="M9.55 12.275C10.8433 12.275 11.8917 11.2266 11.8917 9.93331C11.8917 8.64004 10.8433 7.59164 9.55 7.59164C8.25673 7.59164 7.20833 8.64004 7.20833 9.93331C7.20833 11.2266 8.25673 12.275 9.55 12.275Z" fill="#066CC4"/>
</svg>
