<svg width="120" height="120" viewBox="0 0 120 120" fill="none" xmlns="http://www.w3.org/2000/svg">
<path d="M98.6641 56.8416C98.6641 66.2189 95.4302 74.8378 90.0207 81.6416C82.7113 90.8265 71.4396 96.7208 58.783 96.7208C46.1264 96.7208 34.8547 90.8265 27.5509 81.6416C22.1358 74.8378 18.9019 66.2189 18.9019 56.8416C18.9019 34.7529 36.8377 16.9604 58.783 16.9604C80.7283 16.9604 98.6641 34.8774 98.6641 56.8416Z" fill="#D6DCE8"/>
<path d="M24.5604 87.4981C25.5944 87.2981 26.5962 87.9887 26.7962 89.0226C26.9962 90.0566 26.3189 91.0566 25.2849 91.2566C24.251 91.4566 23.2377 90.7812 23.0377 89.7472C22.8377 88.7132 23.5264 87.6962 24.5604 87.4981Z" fill="#D6DCE8"/>
<path d="M21.5679 83.885C22.2264 83.7586 22.8641 84.1982 22.9905 84.8548C23.1169 85.5133 22.6867 86.1491 22.0282 86.2755C21.3697 86.402 20.7245 85.9737 20.598 85.3152C20.4716 84.6567 20.9094 84.0095 21.5679 83.8831V83.885Z" fill="#D6DCE8"/>
<path d="M96.0736 25.7039C97.1075 25.5039 98.1094 26.1945 98.3094 27.2285C98.5094 28.2624 97.8321 29.2624 96.7981 29.4624C95.7641 29.6624 94.7509 28.987 94.5509 27.953C94.3509 26.919 95.0396 25.9021 96.0736 25.7039Z" fill="#D6DCE8"/>
<path d="M93.0792 22.0888C93.7377 21.9624 94.3754 22.402 94.5019 23.0586C94.6283 23.7171 94.1981 24.353 93.5396 24.4794C92.8811 24.6058 92.2358 24.1775 92.1094 23.519C91.983 22.8605 92.4207 22.2134 93.0792 22.087V22.0888Z" fill="#D6DCE8"/>
<path d="M89.8472 30.3982H28.6906C25.0705 30.3982 22.1359 33.3328 22.1359 36.9529V75.1548C22.1359 78.7749 25.0705 81.7095 28.6906 81.7095H89.8472C93.4673 81.7095 96.4019 78.7749 96.4019 75.1548V36.9529C96.4019 33.3328 93.4673 30.3982 89.8472 30.3982Z" fill="#F1F3F9"/>
<path d="M71.1623 55.7226C71.1623 62.7264 65.4774 68.4113 58.4736 68.4113C51.4698 68.4113 45.7642 62.7264 45.7642 55.7226C45.7642 48.7188 51.4491 43.0132 58.4736 43.0132C65.4981 43.0132 71.1623 48.6981 71.1623 55.7226Z" fill="url(#paint0_linear_11346_42117)"/>
<path d="M96.4019 38.5207V36.9546C96.4019 33.3339 93.4661 30.3999 89.8472 30.3999H28.6906C25.0698 30.3999 22.1359 33.3357 22.1359 36.9546V38.5207H96.4019Z" fill="url(#paint1_linear_11346_42117)"/>
<path d="M28.1471 34.7735C28.1471 35.3792 27.6622 35.864 27.0566 35.864C26.4509 35.864 25.9471 35.3792 25.9471 34.7735C25.9471 34.1678 26.449 33.6641 27.0566 33.6641C27.6641 33.6641 28.1471 34.166 28.1471 34.7735Z" fill="url(#paint2_linear_11346_42117)"/>
<path d="M32.3265 34.7735C32.3265 35.3792 31.8416 35.864 31.2359 35.864C30.6302 35.864 30.1265 35.3792 30.1265 34.7735C30.1265 34.1678 30.6284 33.6641 31.2359 33.6641C31.8434 33.6641 32.3265 34.166 32.3265 34.7735Z" fill="url(#paint3_linear_11346_42117)"/>
<path d="M36.5057 34.7735C36.5057 35.3792 36.0208 35.864 35.4151 35.864C34.8094 35.864 34.3057 35.3792 34.3057 34.7735C34.3057 34.1678 34.8076 33.6641 35.4151 33.6641C36.0226 33.6641 36.5057 34.166 36.5057 34.7735Z" fill="url(#paint4_linear_11346_42117)"/>
<path d="M100.004 101.643C97.6585 103.781 94.0246 103.581 91.9076 101.232L80.734 88.7698C79.9963 87.9566 80.0453 86.6812 80.8736 85.9491L80.8925 85.9302L73.9208 78.3321L74.7604 77.7245C77.5642 75.6774 79.1283 73.6472 79.4302 73.3547L86.3925 80.9529L86.4113 80.934C87.234 80.1962 88.4944 80.2623 89.2321 81.0736L100.415 93.5434C102.521 95.8793 102.385 99.4943 100.004 101.64V101.643Z" fill="url(#paint5_linear_11346_42117)"/>
<path d="M80.7849 35.449C69.6509 23.1434 50.549 22.183 38.2207 33.3396C32.2679 38.7302 28.7509 46.1132 28.3528 54.1528C27.9547 62.1924 30.6962 69.9038 36.0868 75.8792C42.0396 82.466 50.1962 85.8641 58.4226 85.8641C75.0528 85.8641 88.6113 72.2019 88.6113 55.6755C88.6113 48.4566 86.0094 41.2132 80.783 35.449H80.7849ZM58.4245 79.2076C52.0264 79.2076 45.6736 76.5585 41.0339 71.4264C36.8377 66.7623 34.7056 60.7623 35.0094 54.5038C35.3132 48.2453 38.0566 42.4792 42.6981 38.2849C52.3075 29.5887 67.1679 30.3396 75.8396 39.9264C79.917 44.4264 81.9566 50.0509 81.9566 55.6773C81.9566 68.449 71.4679 79.2094 58.4245 79.2094V79.2076Z" fill="url(#paint6_linear_11346_42117)"/>
<path d="M60.7284 50.7754L59.9208 56.8848C59.8246 57.615 59.202 58.1603 58.4642 58.1603C57.7265 58.1603 57.1038 57.615 57.0076 56.8848L56.2001 50.7754C56.0189 49.4075 57.0831 48.1924 58.4642 48.1924C59.8435 48.1924 60.9095 49.4075 60.7284 50.7754Z" fill="url(#paint7_linear_11346_42117)"/>
<path d="M60.168 61.5189C60.168 62.4661 59.4038 63.2302 58.4567 63.2302C57.5095 63.2302 56.7585 62.4661 56.7585 61.5189C56.7585 60.5717 57.5227 59.8208 58.4567 59.8208C59.3906 59.8208 60.168 60.585 60.168 61.5189Z" fill="url(#paint8_linear_11346_42117)"/>
<path d="M27.9585 19.8924C28.9924 19.6924 29.9943 20.383 30.1943 21.4169C30.3943 22.4509 29.717 23.4509 28.683 23.6509C27.649 23.8509 26.6358 23.1754 26.4358 22.1415C26.2358 21.1075 26.9245 20.0905 27.9585 19.8924Z" fill="#D6DCE8"/>
<defs>
<linearGradient id="paint0_linear_11346_42117" x1="45.7642" y1="55.7113" x2="71.1623" y2="55.7113" gradientUnits="userSpaceOnUse">
<stop stop-color="#AAB2C5"/>
<stop offset="1" stop-color="#D6DCE8"/>
</linearGradient>
<linearGradient id="paint1_linear_11346_42117" x1="22.1359" y1="34.4603" x2="96.4019" y2="34.4603" gradientUnits="userSpaceOnUse">
<stop stop-color="#AAB2C5"/>
<stop offset="1" stop-color="#D6DCE8"/>
</linearGradient>
<linearGradient id="paint2_linear_11346_42117" x1="25.9471" y1="34.7641" x2="28.1471" y2="34.7641" gradientUnits="userSpaceOnUse">
<stop stop-color="#D6DCE8"/>
<stop offset="1" stop-color="#F1F3F9"/>
</linearGradient>
<linearGradient id="paint3_linear_11346_42117" x1="30.1265" y1="34.7641" x2="32.3265" y2="34.7641" gradientUnits="userSpaceOnUse">
<stop stop-color="#D6DCE8"/>
<stop offset="1" stop-color="#F1F3F9"/>
</linearGradient>
<linearGradient id="paint4_linear_11346_42117" x1="34.3057" y1="34.7641" x2="36.5057" y2="34.7641" gradientUnits="userSpaceOnUse">
<stop stop-color="#D6DCE8"/>
<stop offset="1" stop-color="#F1F3F9"/>
</linearGradient>
<linearGradient id="paint5_linear_11346_42117" x1="73.9189" y1="88.2415" x2="101.898" y2="88.2415" gradientUnits="userSpaceOnUse">
<stop stop-color="#989FB0"/>
<stop offset="1" stop-color="#AAB2C5"/>
</linearGradient>
<linearGradient id="paint6_linear_11346_42117" x1="28.3151" y1="55.7113" x2="88.6132" y2="55.7113" gradientUnits="userSpaceOnUse">
<stop stop-color="#989FB0"/>
<stop offset="1" stop-color="#AAB2C5"/>
</linearGradient>
<linearGradient id="paint7_linear_11346_42117" x1="56.1793" y1="53.1773" x2="60.7472" y2="53.1773" gradientUnits="userSpaceOnUse">
<stop stop-color="#D6DCE8"/>
<stop offset="1" stop-color="#F1F3F9"/>
</linearGradient>
<linearGradient id="paint8_linear_11346_42117" x1="56.7585" y1="61.5246" x2="60.168" y2="61.5246" gradientUnits="userSpaceOnUse">
<stop stop-color="#D6DCE8"/>
<stop offset="1" stop-color="#F1F3F9"/>
</linearGradient>
</defs>
</svg>
