<svg width="120" height="120" viewBox="0 0 120 120" fill="none" xmlns="http://www.w3.org/2000/svg">
<path d="M102.157 59.9628C102.157 83.7831 82.9926 103.156 59.437 103.156C35.8815 103.156 16.7167 83.7831 16.7167 59.9628C16.7167 36.1426 35.8815 16.7568 59.437 16.7568C82.9926 16.7568 102.157 36.137 102.157 59.9628Z" fill="#D6DCE8"/>
<path d="M53.1222 25.5488H24.5203C20.5745 25.5488 17.3759 28.7835 17.3759 32.7736V61.6968C17.3759 65.6869 20.5745 68.9215 24.5203 68.9215H53.1222C57.0679 68.9215 60.2666 65.6869 60.2666 61.6968V32.7736C60.2666 28.7835 57.0679 25.5488 53.1222 25.5488Z" fill="#F9FAFD"/>
<path d="M24.224 31.1406C24.224 32.0207 23.5203 32.7268 22.65 32.7268C21.7796 32.7268 21.0814 32.0207 21.0814 31.1406C21.0814 30.2604 21.7851 29.5544 22.65 29.5544C23.5148 29.5544 24.224 30.266 24.224 31.1406Z" fill="#D6DCE8"/>
<path d="M56.5592 31.1406C56.5592 32.0207 55.8555 32.7268 54.9852 32.7268C54.1148 32.7268 53.4166 32.0207 53.4166 31.1406C53.4166 30.2604 54.1203 29.5544 54.9852 29.5544C55.85 29.5544 56.5592 30.266 56.5592 31.1406Z" fill="#D6DCE8"/>
<path d="M24.224 63.3278C24.224 64.208 23.5203 64.914 22.65 64.914C21.7796 64.914 21.0814 64.208 21.0814 63.3278C21.0814 62.4477 21.7851 61.7417 22.65 61.7417C23.5148 61.7417 24.224 62.4533 24.224 63.3278Z" fill="#D6DCE8"/>
<path d="M56.5592 63.3278C56.5592 64.208 55.8555 64.914 54.9852 64.914C54.1148 64.914 53.4166 64.208 53.4166 63.3278C53.4166 62.4477 54.1203 61.7417 54.9852 61.7417C55.85 61.7417 56.5592 62.4533 56.5592 63.3278Z" fill="#D6DCE8"/>
<path d="M53.7795 47.9888C53.7795 51.9963 52.2332 55.6424 49.7146 58.3502C49.4869 58.5955 49.1628 58.7285 48.8295 58.7285H28.8128C28.4795 58.7285 28.1554 58.5955 27.9276 58.3521C25.4054 55.6442 23.8628 51.9982 23.8628 47.9907C23.8628 43.9832 25.4035 40.3315 27.9276 37.6218C28.1554 37.3764 28.4795 37.2454 28.8128 37.2454H48.8295C49.1628 37.2454 49.4869 37.3783 49.7146 37.6236C52.2313 40.3315 53.7795 43.9851 53.7795 47.9907V47.9888Z" fill="url(#paint0_linear_11346_42116)"/>
<path d="M35.424 43.5152C35.424 42.6588 34.7379 41.9646 33.8915 41.9646C33.0452 41.9646 32.3591 42.6588 32.3591 43.5152V47.1088C32.3591 47.9651 33.0452 48.6594 33.8915 48.6594C34.7379 48.6594 35.424 47.9651 35.424 47.1088V43.5152Z" fill="white"/>
<path d="M45.2814 43.5152V47.1088C45.2814 47.9646 44.5944 48.6594 43.7481 48.6594C42.9018 48.6594 42.2147 47.9646 42.2147 47.1088V43.5152C42.2147 42.6594 42.9018 41.9646 43.7481 41.9646C44.5944 41.9646 45.2814 42.6594 45.2814 43.5152Z" fill="white"/>
<path d="M40.8388 52.0807V53.4028C40.8388 53.6819 40.6147 53.9084 40.3388 53.9084H37.3018C37.0258 53.9084 36.8018 53.6819 36.8018 53.4028V52.0807C36.8018 50.9534 37.7055 50.0396 38.8203 50.0396C39.9351 50.0396 40.8388 50.9534 40.8388 52.0807Z" fill="white"/>
<path d="M101.5 40.3169C101.5 43.8937 98.6222 46.8038 95.0777 46.8038H75.1259C71.1166 46.8038 67.8629 43.506 67.8629 39.4592C67.8629 35.4124 71.0462 32.1858 74.9925 32.1147C76.4703 27.5884 80.7 24.4761 85.4666 24.4761C90.9833 24.4761 95.5796 28.5173 96.387 33.9592C99.337 34.5734 101.5 37.2139 101.5 40.3169Z" fill="url(#paint1_linear_11346_42116)"/>
<path d="M85.3851 39.742C84.8703 39.2214 84.0333 39.2214 83.5166 39.742C83.2481 40.0135 82.8129 40.0135 82.5462 39.742C82.2777 39.4704 82.2777 39.0304 82.5462 38.7607C83.5981 37.6989 85.3073 37.6989 86.3573 38.7607C86.6259 39.0322 86.6259 39.4723 86.3573 39.742C86.0888 40.0116 85.6536 40.0135 85.387 39.742H85.3851Z" fill="#A1A9BB"/>
<path d="M82.5537 34.9665C82.5537 35.6613 81.9981 36.2287 81.3055 36.2287C80.6129 36.2287 80.0574 35.6613 80.0574 34.9665C80.0574 34.2718 80.6129 33.6987 81.3055 33.6987C81.9981 33.6987 82.5537 34.2661 82.5537 34.9665Z" fill="#A1A9BB"/>
<path d="M88.8463 34.9665C88.8463 35.6613 88.2907 36.2287 87.5981 36.2287C86.9055 36.2287 86.35 35.6613 86.35 34.9665C86.35 34.2718 86.9055 33.6987 87.5981 33.6987C88.2907 33.6987 88.8463 34.2661 88.8463 34.9665Z" fill="#A1A9BB"/>
<path d="M79.1981 79.4683C79.1981 87.6406 72.624 94.2886 64.5426 94.2886C64.2037 94.2886 63.9277 94.0095 63.9277 93.6668V93.4365C63.9277 93.1687 64.1 92.9327 64.3518 92.8466C68.0426 91.6088 70.7166 85.9814 70.7166 79.4702C70.7166 72.959 68.0407 67.3316 64.3518 66.0938C64.1 66.0077 63.9277 65.7698 63.9277 65.5039V65.2735C63.9277 64.9308 64.2037 64.6519 64.5426 64.6519C72.624 64.6519 79.1981 71.2998 79.1981 79.4721V79.4683Z" fill="#F5F6F9"/>
<path d="M71.3333 79.4706C71.3333 87.3376 67.55 93.7122 62.8815 93.7122L57.9611 93.7009C62.5351 93.523 66.2055 87.2215 66.2055 79.4706C66.2055 71.7197 62.4222 65.229 57.7537 65.229H62.8796C67.5463 65.229 71.3314 71.6035 71.3314 79.4706H71.3333Z" fill="white"/>
<path d="M62.8814 94.4049L57.9611 94.3936C57.587 94.3936 57.2814 94.0903 57.2759 93.712C57.2685 93.3337 57.5629 93.0191 57.937 93.006C62.1185 92.8431 65.5203 86.7719 65.5203 79.4686C65.5203 72.1652 62.037 65.9218 57.7555 65.9218C57.3759 65.9218 57.0685 65.6109 57.0685 65.227C57.0685 64.8431 57.3759 64.5322 57.7555 64.5322H62.8814C67.9203 64.5322 72.0185 71.2326 72.0185 79.4686C72.0185 87.7045 67.9185 94.4049 62.8814 94.4049ZM61.6444 93.0135H62.8833C67.1629 93.0154 70.6462 86.9386 70.6462 79.4686C70.6462 71.9985 67.1629 65.9218 62.8814 65.9218H61.6018C68.6685 71.3057 68.6129 87.7326 61.6425 93.0135H61.6444Z" fill="#D6DCE8"/>
<path d="M71.9482 79.4683C71.9482 87.665 67.8833 94.3317 62.8833 94.3317L57.963 94.326C57.6241 94.326 57.3537 94.0526 57.3482 93.7099C57.3426 93.3747 57.6056 93.0938 57.9389 93.0826C62.1574 92.914 65.5945 86.8148 65.5945 79.4702C65.5945 72.1256 62.0759 65.8504 57.7537 65.8504C57.4148 65.8504 57.1389 65.5713 57.1389 65.2286C57.1389 64.8859 57.4148 64.6069 57.7537 64.6069H62.8833C67.8833 64.6069 71.9482 71.2736 71.9482 79.4702V79.4683Z" fill="url(#paint2_linear_11346_42116)"/>
<path d="M66.2074 79.4706C66.2074 87.3376 62.4241 93.7122 57.7556 93.7122C53.087 93.7122 49.3037 87.3376 49.3037 79.4706C49.3037 71.6035 53.087 65.229 57.7556 65.229C62.4241 65.229 66.2074 71.6035 66.2074 79.4706Z" fill="white"/>
<path d="M57.7556 94.4049C52.7167 94.4049 48.6185 87.7045 48.6185 79.4686C48.6185 71.2326 52.7185 64.5322 57.7556 64.5322C62.7926 64.5322 66.8926 71.2326 66.8926 79.4686C66.8926 87.7045 62.7926 94.4049 57.7556 94.4049ZM57.7556 65.9218C53.4741 65.9218 49.9907 71.9985 49.9907 79.4686C49.9907 86.9386 53.4741 93.0154 57.7556 93.0154C62.037 93.0154 65.5204 86.9386 65.5204 79.4686C65.5204 71.9985 62.037 65.9218 57.7556 65.9218Z" fill="#A1A9BB"/>
<path d="M57.4537 70.6069C60.5111 70.6069 60.5111 76.1406 57.4537 76.1406H43.8667C42.3556 76.1406 41.1296 74.9027 41.1296 73.3728C41.1296 71.8447 42.3556 70.605 43.8667 70.605H57.4537V70.6069Z" fill="url(#paint3_linear_11346_42116)"/>
<path d="M57.4537 82.7983C60.5111 82.7983 60.5111 88.332 57.4537 88.332H43.8667C42.3556 88.332 41.1296 87.0923 41.1296 85.5642C41.1296 84.0361 42.3556 82.7964 43.8667 82.7964H57.4537V82.7983Z" fill="url(#paint4_linear_11346_42116)"/>
<path d="M103.289 93.4326C103.289 92.7304 102.713 92.1723 102.02 92.1929C95.2 92.3933 93.3814 89.5618 95.0703 82.9364C95.6981 80.4719 96.5592 77.0956 95.0611 74.2491C93.0796 70.4813 87.637 68.794 81.9259 72.4925C80.0222 73.7247 78.4259 75.3034 76.8833 76.8333C76.4463 77.2678 76.3333 77.9719 76.687 78.4775C77.137 79.1217 78.0259 79.1836 78.5592 78.6555C80.0259 77.1986 81.5426 75.6948 83.2518 74.588C87.6426 71.7435 91.5537 72.8802 92.8889 75.4177C93.8592 77.2622 93.3722 79.633 92.6889 82.3165C90.6222 90.427 93.5037 94.9382 102.096 94.6798C102.761 94.6592 103.289 94.1068 103.289 93.4345V93.4326Z" fill="#F5F6F9"/>
<path d="M17.5871 87.8991C16.9001 88.7811 17.0612 90.0695 17.9353 90.7643C18.8075 91.459 20.0723 91.3073 20.7593 90.4253C21.4464 89.5433 21.3056 88.253 20.4334 87.5583C19.5612 86.8635 18.276 87.0171 17.589 87.901L17.5871 87.8991Z" fill="#D6DCE8"/>
<path d="M15.6482 83.2943C15.2112 83.8561 15.3148 84.6763 15.8685 85.1182C16.4223 85.5602 17.2278 85.4647 17.6667 84.9029C18.1037 84.3411 18.0149 83.519 17.4593 83.0771C16.9037 82.6351 16.0852 82.7325 15.6482 83.2943Z" fill="#D6DCE8"/>
<path d="M85.8519 19.2584C85.6964 20.3708 86.476 21.4008 87.576 21.5581C88.676 21.7154 89.6927 20.942 89.8482 19.8296C90.0038 18.7173 89.2408 17.6742 88.1408 17.5169C87.0408 17.3596 86.0075 18.1461 85.8519 19.2584Z" fill="#D6DCE8"/>
<path d="M81.8871 16.2623C81.789 16.9701 82.2853 17.6256 82.9853 17.7267C83.6853 17.826 84.3335 17.3334 84.4316 16.6256C84.5298 15.9177 84.0446 15.2529 83.3446 15.1537C82.6446 15.0544 81.9871 15.5544 81.8871 16.2623Z" fill="#D6DCE8"/>
<path d="M30.4056 21.4009C30.3074 22.1088 30.8037 22.7643 31.5037 22.8654C32.2037 22.9665 32.8519 22.4721 32.95 21.7643C33.0482 21.0564 32.563 20.3916 31.863 20.2923C31.163 20.1931 30.5056 20.6931 30.4056 21.4009Z" fill="#D6DCE8"/>
<defs>
<linearGradient id="paint0_linear_11346_42116" x1="38.3702" y1="55.1405" x2="39.2374" y2="41.7204" gradientUnits="userSpaceOnUse">
<stop stop-color="#989FB0"/>
<stop offset="1" stop-color="#AAB2C5"/>
</linearGradient>
<linearGradient id="paint1_linear_11346_42116" x1="85.7574" y1="25.9686" x2="83.0157" y2="60.6473" gradientUnits="userSpaceOnUse">
<stop stop-color="#D6DCE8"/>
<stop offset="0.5" stop-color="white"/>
</linearGradient>
<linearGradient id="paint2_linear_11346_42116" x1="57.1389" y1="79.4684" x2="71.9482" y2="79.4684" gradientUnits="userSpaceOnUse">
<stop stop-color="#989FB0"/>
<stop offset="1" stop-color="#AAB2C5"/>
</linearGradient>
<linearGradient id="paint3_linear_11346_42116" x1="41.1296" y1="73.3728" x2="59.7482" y2="73.3728" gradientUnits="userSpaceOnUse">
<stop stop-color="#989FB0"/>
<stop offset="1" stop-color="#AAB2C5"/>
</linearGradient>
<linearGradient id="paint4_linear_11346_42116" x1="41.1296" y1="85.5661" x2="59.7482" y2="85.5661" gradientUnits="userSpaceOnUse">
<stop stop-color="#989FB0"/>
<stop offset="1" stop-color="#AAB2C5"/>
</linearGradient>
</defs>
</svg>
