<svg width="120" height="120" viewBox="0 0 120 120" fill="none" xmlns="http://www.w3.org/2000/svg">
<path d="M106.082 60.0375C106.082 70.9653 102.328 81.0076 96.0499 88.9364C87.5652 99.6387 74.4808 106.508 59.7898 106.508C34.31 106.508 13.498 85.7784 13.498 60.0375C13.498 49.1175 17.2524 39.0751 23.5374 31.1464C32.2101 20.1647 45.452 13.5674 59.7898 13.5674C85.356 13.5674 106.082 34.3612 106.082 60.0375H106.082Z" fill="#D6DCE8"/>
<path d="M19.3983 100.378C20.5989 100.145 21.762 100.95 21.9933 102.155C22.2246 103.359 21.4396 104.525 20.239 104.757C19.0394 104.989 17.8618 104.204 17.6305 102.999C17.3993 101.795 18.1977 100.61 19.3973 100.378H19.3983Z" fill="#D6DCE8"/>
<path d="M15.9232 96.1664C16.6871 96.019 17.428 96.5306 17.5748 97.2975C17.7217 98.0643 17.2226 98.8061 16.4587 98.9535C15.6948 99.1009 14.9462 98.6019 14.7984 97.835C14.6516 97.0682 15.1593 96.3148 15.9232 96.1664Z" fill="#D6DCE8"/>
<path d="M16.1392 13.998C17.3398 13.7658 18.5029 14.5702 18.7342 15.7754C18.9655 16.9796 18.1805 18.1454 16.9799 18.3775C15.7803 18.6097 14.6027 17.8245 14.3714 16.6193C14.1402 15.4151 14.9386 14.2301 16.1382 13.998H16.1392Z" fill="#D6DCE8"/>
<path d="M92.2994 24.0259C92.0038 23.7532 91.9837 23.2927 92.2543 22.996C92.6497 22.5635 93.0269 22.1097 93.3752 21.6492C93.6161 21.3284 94.072 21.2638 94.3935 21.5085C94.713 21.7513 94.7754 22.2089 94.5336 22.5297C94.1584 23.0268 93.7524 23.5153 93.3263 23.9816C93.0547 24.2793 92.596 24.2976 92.3004 24.0268L92.2994 24.0259Z" fill="url(#paint0_linear_11346_42115)"/>
<path d="M38.8906 46.7659C37.9165 46.2562 36.7965 45.8314 35.5643 45.5038C35.1766 45.4007 34.9453 45.0009 35.048 44.6117C35.1516 44.2225 35.548 43.9923 35.9357 44.0934C37.2716 44.4489 38.4914 44.9133 39.5604 45.472C39.9165 45.658 40.0537 46.0982 39.8685 46.4557C39.6823 46.816 39.2399 46.9499 38.8887 46.7659H38.8906ZM32.0038 44.8497C30.9866 44.7254 29.951 44.631 28.3167 44.4759C27.9175 44.4373 27.6248 44.0799 27.6641 43.6801C27.7025 43.2794 28.046 42.9836 28.4568 43.025L29.4338 43.1175C30.3503 43.2042 31.2677 43.2899 32.1794 43.4017C32.5777 43.4508 32.8608 43.814 32.8128 44.2138C32.7639 44.6098 32.4069 44.8978 32.0038 44.8497ZM24.5672 43.9913C22.9962 43.711 21.7485 43.3449 20.8407 42.9894C20.4664 42.8429 20.2821 42.42 20.4271 42.0452C20.5729 41.6695 20.9942 41.4846 21.3666 41.63C22.4357 42.0472 23.6718 42.3497 24.8224 42.5549C25.2169 42.6252 25.4798 43.0038 25.4098 43.4007C25.3388 43.8005 24.9578 44.0616 24.5672 43.9903V43.9913ZM17.4261 41.0539C16.31 40.1811 15.4136 39.1869 14.7649 38.0982C14.5585 37.7533 14.6708 37.3054 15.0144 37.0982C15.358 36.8911 15.8052 37.0038 16.0105 37.3497C16.5681 38.2832 17.3436 39.1426 18.3186 39.9036C18.6353 40.1512 18.6919 40.6088 18.4453 40.9268C18.2015 41.2418 17.7457 41.3034 17.4261 41.0539ZM14.332 34.8795C13.9414 34.8795 13.6199 34.6011 13.6075 34.2071C13.6075 34.1994 13.6065 34.1223 13.6065 34.1156V34.0404C13.6065 32.7562 13.9366 31.4826 14.5892 30.2562C14.7783 29.9007 15.2188 29.7659 15.572 29.9566C15.9261 30.1464 16.0595 30.5876 15.8704 30.9431C15.3311 31.9557 15.0585 32.998 15.0585 34.0404C15.0585 34.0472 15.0585 34.1079 15.0585 34.1156C15.0585 34.5144 14.7409 34.8728 14.3445 34.8795C14.3407 34.8795 14.3359 34.8795 14.332 34.8795ZM67.8551 32.6926C67.4597 32.6926 67.1363 32.3747 67.1286 31.9768C67.1219 31.5742 67.4405 31.2418 67.8416 31.2341C69.0067 31.2138 70.1286 30.9614 71.1891 30.5106C71.5576 30.3535 71.9837 30.526 72.142 30.8969C72.2985 31.2678 72.1257 31.6955 71.7572 31.8526C70.5 32.3873 69.2082 32.6657 67.8695 32.6926H67.856H67.8551ZM63.9894 32.1618C62.6622 31.7977 61.3733 31.2832 60.3973 30.8747C60.0269 30.7196 59.8522 30.2928 60.0067 29.921C60.1612 29.5481 60.5873 29.3728 60.9568 29.5289C61.8915 29.92 63.1248 30.4133 64.3724 30.7553C64.7591 30.8612 64.9875 31.262 64.882 31.6503C64.7793 32.0298 64.3877 32.2697 63.9894 32.1618ZM79.0595 30.157C79.0173 29.7562 79.3071 29.3979 79.7054 29.3564C80.3599 29.2562 81.3819 29.2032 83.2207 28.656C83.6075 28.5404 84.0096 28.762 84.1238 29.1474C84.238 29.5337 84.0192 29.9393 83.6334 30.0539C81.6564 30.6435 80.2341 30.7495 79.857 30.8073C79.8311 30.8102 79.0998 30.5462 79.0595 30.158V30.157ZM75.9434 30.7061C74.6276 30.4691 73.2745 29.9585 72.2217 29.132C71.9059 28.8834 71.8503 28.4248 72.0979 28.1088C72.3445 27.7919 72.8032 27.736 73.118 27.9855C73.4069 28.2129 73.7582 28.4248 74.0912 28.5905C74.9856 27.7283 75.6603 26.7283 76.0499 25.8266C76.2092 25.4576 76.6353 25.2861 77.0057 25.4499C77.3743 25.6108 77.5422 26.0404 77.382 26.4094C76.9962 27.2957 76.381 28.2697 75.5864 29.1397C75.786 29.1898 75.9904 29.2341 76.1987 29.2716C76.594 29.3429 76.857 29.7216 76.786 30.1175C76.714 30.5192 76.332 30.7774 75.9434 30.7071V30.7061ZM56.975 29.419C55.8455 28.9605 54.6852 28.5279 53.524 28.1358C53.1439 28.0077 52.9395 27.5934 53.0681 27.2119C53.1967 26.8304 53.6056 26.6262 53.9885 26.7533C55.1766 27.1551 56.3647 27.5973 57.5201 28.0674C57.8925 28.2187 58.071 28.6435 57.9213 29.0173C57.7725 29.3863 57.3522 29.5722 56.976 29.419H56.975ZM86.8829 28.7023C86.119 28.7023 85.8752 27.6666 86.5547 27.3227C87.6228 26.7794 88.6478 26.1387 89.6008 25.4162C89.9194 25.1734 90.3762 25.237 90.618 25.5587C90.8599 25.8805 90.7956 26.3372 90.476 26.5799C89.4549 27.3535 88.356 28.0414 87.2102 28.6233C87.1056 28.6763 86.9933 28.7023 86.8829 28.7023ZM17.0297 28.2032C16.7725 27.894 16.8148 27.4345 17.1238 27.1763C18.1411 26.3256 19.2821 25.684 20.5201 25.1849C20.8896 25.0337 21.3157 25.2158 21.4645 25.5896C21.6142 25.9634 21.4338 26.3882 21.0614 26.5375C19.977 26.9749 18.9606 27.5375 18.0518 28.2967C17.7476 28.552 17.2889 28.5154 17.0288 28.2023L17.0297 28.2032ZM50.0029 27.0616C48.8215 26.7389 47.618 26.4479 46.4251 26.1965C46.0326 26.1136 45.7812 25.7273 45.8637 25.3333C45.9462 24.9393 46.3301 24.6859 46.7236 24.7697C47.9443 25.026 49.1766 25.3237 50.3848 25.6541C50.7725 25.7601 51.0009 26.1609 50.8944 26.5491C50.7898 26.9335 50.3954 27.1686 50.0029 27.0607V27.0616ZM69.9031 25.7225C69.596 24.6397 69.5998 23.5115 70 22.4585C70.1276 22.1252 70.3023 21.8073 70.5202 21.5135C70.7601 21.1917 71.214 21.1233 71.5365 21.3632C71.8589 21.6031 71.9251 22.0607 71.6862 22.3834C71.0854 23.1926 71.0163 24.3246 71.3013 25.3227C71.4117 25.71 71.1881 26.1136 70.8023 26.2235C70.4155 26.3352 70.0144 26.1088 69.904 25.7225H69.9031ZM23.6545 24.9826C23.5796 24.5867 23.8397 24.2061 24.2341 24.131C26.0412 23.7899 27.7332 23.6686 27.9952 23.6387C28.4069 23.6108 28.7466 23.8998 28.7821 24.3005C28.8176 24.7013 28.5221 25.0558 28.1228 25.0905L27.6113 25.1377C26.4079 25.2553 25.4194 25.3901 24.5019 25.5636C24.1103 25.6368 23.7284 25.3795 23.6545 24.9817V24.9826ZM42.8042 25.5433C41.595 25.3622 40.3647 25.2148 39.1497 25.104C38.7505 25.0674 38.4549 24.7138 38.4914 24.3121C38.5278 23.9113 38.8925 23.6204 39.2802 23.6512C40.524 23.7639 41.7821 23.9142 43.0192 24.1002C43.4165 24.1599 43.6891 24.5308 43.6305 24.9287C43.571 25.3295 43.1996 25.6011 42.8052 25.5424L42.8042 25.5433ZM35.476 24.8815C34.2485 24.8429 33.0201 24.842 31.7965 24.8767C31.4002 24.8882 31.0614 24.5713 31.0499 24.1686C31.0384 23.7659 31.3551 23.4306 31.7553 23.419C33.0096 23.3834 34.2658 23.3844 35.5221 23.4239C35.9232 23.4364 36.238 23.7726 36.2255 24.1753C36.2121 24.5905 35.8589 24.8988 35.477 24.8815H35.476ZM76.3964 22.6849C76.1104 21.7399 75.3887 21.1175 74.3196 21.0982C73.9184 21.0905 73.5998 20.7582 73.6065 20.3564C73.6132 19.9585 73.9376 19.6406 74.333 19.6406H74.3464C76.0451 19.6715 77.3186 20.7158 77.7869 22.261C77.9031 22.6464 77.6871 23.0539 77.3033 23.1705C76.9232 23.288 76.5144 23.0732 76.3964 22.6849Z" fill="url(#paint1_linear_11346_42115)"/>
<path d="M42.7101 50.2227C42.4318 49.7507 42.0969 49.3008 41.7169 48.8855C41.4453 48.5898 41.4654 48.1283 41.76 47.8557C42.0556 47.584 42.5144 47.6023 42.786 47.899C43.2341 48.3884 43.6286 48.9202 43.9587 49.48C44.1631 49.8268 44.0489 50.2738 43.7044 50.479C43.3618 50.6823 42.9146 50.5724 42.7092 50.2237L42.7101 50.2227Z" fill="url(#paint2_linear_11346_42115)"/>
<path d="M97.5662 63.477V47.1533C97.5662 44.0724 95.0787 41.5753 92.0096 41.5753H52.4577C50.57 41.5753 48.8109 40.6128 47.7879 39.0203L45.7735 35.8845C44.7504 34.292 42.9913 33.3296 41.1036 33.3296H28.3387C25.2696 33.3296 22.7821 35.8267 22.7821 38.9076V63.476H97.5662V63.477Z" fill="url(#paint3_linear_11346_42115)"/>
<path d="M106.243 63.4276L99.1238 92.9497C98.2102 96.7368 94.833 99.4044 90.9511 99.4044H29.3992C25.5173 99.4044 22.1401 96.7368 21.2265 92.9497L14.1075 63.4276C12.9165 58.4902 16.643 53.7368 21.7035 53.7368H98.6478C103.708 53.7368 107.434 58.4912 106.244 63.4276H106.243Z" fill="url(#paint4_linear_11346_42115)"/>
<path d="M62.9088 88.4066C62.6324 88.4066 62.356 88.3016 62.1439 88.0916C61.0326 86.9933 59.3032 86.9827 58.2044 88.0694C57.7764 88.4943 57.0873 88.4885 56.6641 88.0578C56.2418 87.6282 56.2466 86.9355 56.6756 86.5116C58.5979 84.6099 61.737 84.6166 63.6737 86.5338C64.1017 86.9576 64.1074 87.6503 63.6852 88.08C63.4721 88.2968 63.191 88.4066 62.9088 88.4066Z" fill="#A3AABC"/>
<path d="M75.6056 78.3033C75.6056 80.2205 74.0566 81.7764 72.1459 81.7764C70.2351 81.7764 68.6862 80.2215 68.6862 78.3033C68.6862 76.3852 70.2351 74.8303 72.1459 74.8303C74.0566 74.8303 75.6056 76.3852 75.6056 78.3033Z" fill="url(#paint5_linear_11346_42115)"/>
<path d="M78.7293 72.0963C78.5978 72.0963 78.4654 72.0722 78.3359 72.0221L70.3579 68.9219C69.7965 68.7032 69.5182 68.0702 69.736 67.5067C69.952 66.9421 70.5834 66.6637 71.1458 66.8814L79.1238 69.9816C79.6852 70.2003 79.9635 70.8333 79.7456 71.3968C79.5786 71.8304 79.166 72.0963 78.7303 72.0963H78.7293Z" fill="#A3AABC"/>
<path d="M71.1487 79.7109C71.1487 80.2639 71.595 80.7119 72.1459 80.7119C72.6967 80.7119 73.143 80.2639 73.143 79.7109C73.143 79.1579 72.6967 78.71 72.1459 78.71C71.595 78.71 71.1487 79.1579 71.1487 79.7109Z" fill="white"/>
<path d="M44.7438 78.3033C44.7438 80.2205 46.2927 81.7764 48.2035 81.7764C50.1142 81.7764 51.6632 80.2215 51.6632 78.3033C51.6632 76.3852 50.1142 74.8303 48.2035 74.8303C46.2927 74.8303 44.7438 76.3852 44.7438 78.3033Z" fill="url(#paint6_linear_11346_42115)"/>
<path d="M41.6199 72.0962C41.1833 72.0962 40.7706 71.8303 40.6046 71.3968C40.3867 70.8332 40.666 70.2003 41.2264 69.9816L49.2044 66.8814C49.7668 66.6646 50.3973 66.9431 50.6142 67.5066C50.832 68.0702 50.5527 68.7032 49.9923 68.9219L42.0144 72.0221C41.8848 72.0721 41.7524 72.0962 41.6209 72.0962H41.6199Z" fill="#A3AABC"/>
<path d="M48.3648 80.6907C48.9084 80.6021 49.2775 80.0879 49.1893 79.5423C49.101 78.9966 48.5889 78.626 48.0453 78.7146C47.5017 78.8032 47.1326 79.3174 47.2208 79.863C47.309 80.4087 47.8212 80.7793 48.3648 80.6907Z" fill="white"/>
<path d="M105.722 91.5511C105.722 98.8622 99.8148 104.799 92.5259 104.799C85.237 104.799 79.3292 98.8632 79.3292 91.5511C79.3292 84.2389 85.2361 78.3044 92.5259 78.3044C99.8157 78.3044 105.722 84.2341 105.722 91.5511Z" fill="white"/>
<path d="M92.525 105.527C84.8484 105.527 78.6027 99.2573 78.6027 91.5511C78.6027 83.8449 84.8484 77.5752 92.525 77.5752C100.202 77.5752 106.447 83.8449 106.447 91.5511C106.447 99.2573 100.202 105.527 92.525 105.527ZM92.525 79.0328C85.6488 79.0328 80.0547 84.6484 80.0547 91.5501C80.0547 98.4519 85.6488 104.068 92.525 104.068C99.4012 104.068 104.995 98.4528 104.995 91.5501C104.995 84.6474 99.4012 79.0328 92.525 79.0328Z" fill="#AAB2C5"/>
<path d="M101.43 91.5511C101.43 96.4847 97.4443 100.49 92.5259 100.49C87.6075 100.49 83.6209 96.4847 83.6209 91.5511C83.6209 86.6176 87.6065 82.6128 92.5259 82.6128C97.4453 82.6128 101.43 86.6138 101.43 91.5511Z" fill="url(#paint7_linear_11346_42115)"/>
<path d="M96.3148 95.3564C95.8829 95.8025 95.1497 95.8035 94.7179 95.3564L92.523 93.1599L90.335 95.3564C89.8945 95.8044 89.1718 95.8044 88.738 95.3564C88.2937 94.9229 88.2927 94.1869 88.738 93.7534L90.9261 91.5568L88.738 89.3535C88.2918 88.9056 88.2918 88.1917 88.738 87.7437C89.166 87.3006 89.8877 87.2948 90.335 87.7437L92.523 89.9403L94.7179 87.7437C95.1584 87.3015 95.8752 87.3015 96.3148 87.7437C96.7409 88.1599 96.7783 88.8882 96.3148 89.3535L94.1267 91.5568L96.3148 93.7534C96.761 94.1956 96.761 94.9152 96.3148 95.3564Z" fill="white"/>
<path d="M103.228 15.3593L103.859 14.9315C103.749 14.8602 103.623 14.7986 103.469 14.7562C102.722 14.4614 103.12 13.3496 103.879 13.5982C104.273 13.7494 104.644 13.9595 104.905 14.2225L105.22 14.0086C105.507 13.814 105.876 13.8978 106.06 14.1714C106.245 14.445 106.184 14.8207 105.898 15.0153L105.583 15.2292C105.715 15.5799 105.78 15.9546 105.773 16.3785C105.771 16.7157 105.504 17.0019 105.168 16.999C104.832 16.9961 104.561 16.7186 104.564 16.3814C104.558 16.2177 104.548 16.078 104.523 15.9479L103.907 16.366C103.829 16.1888 103.727 16.0057 103.61 15.8333C103.494 15.6608 103.364 15.498 103.228 15.3593Z" fill="url(#paint8_linear_11346_42115)"/>
<path d="M98.0547 24.1965C97.9712 23.9181 97.9405 23.6243 97.9338 23.3353C99.4165 22.736 101.259 21.7524 102.426 20.7678C103.089 22.1339 102.505 24.4027 101.08 25.3709C99.833 26.2168 98.477 25.6917 98.0547 24.1965Z" fill="url(#paint9_linear_11346_42115)"/>
<path d="M93.8512 14.6427C95.2735 13.6764 97.6007 13.9818 98.5979 15.0878C97.237 15.8161 95.6362 17.1812 94.5518 18.3171C94.2725 18.213 94.0268 18.0656 93.81 17.898C92.5854 16.9481 92.6046 15.4885 93.8503 14.6427H93.8512Z" fill="url(#paint10_linear_11346_42115)"/>
<path d="M101.568 21.4189C98.3051 23.6338 92.879 25.4411 91.8051 23.8467C90.7332 22.2561 94.4213 17.8698 97.6842 15.655C100.944 13.4421 102.539 14.2407 103.611 15.8313C104.685 17.4247 104.827 19.206 101.567 21.4189H101.568Z" fill="url(#paint11_linear_11346_42115)"/>
<defs>
<linearGradient id="paint0_linear_11346_42115" x1="13.601" y1="22.7889" x2="94.6804" y2="22.7889" gradientUnits="userSpaceOnUse">
<stop stop-color="#D6DCE8"/>
<stop offset="1" stop-color="white"/>
</linearGradient>
<linearGradient id="paint1_linear_11346_42115" x1="13.6055" y1="33.2447" x2="94.6804" y2="33.2447" gradientUnits="userSpaceOnUse">
<stop stop-color="#D6DCE8"/>
<stop offset="1" stop-color="white"/>
</linearGradient>
<linearGradient id="paint2_linear_11346_42115" x1="13.6055" y1="49.1216" x2="94.6804" y2="49.1216" gradientUnits="userSpaceOnUse">
<stop stop-color="#D6DCE8"/>
<stop offset="1" stop-color="white"/>
</linearGradient>
<linearGradient id="paint3_linear_11346_42115" x1="60.0268" y1="45.0261" x2="60.2899" y2="63.1783" gradientUnits="userSpaceOnUse">
<stop stop-color="#989FB0"/>
<stop offset="1" stop-color="#AAB2C5"/>
</linearGradient>
<linearGradient id="paint4_linear_11346_42115" x1="60.0998" y1="48.1463" x2="60.2536" y2="75.7185" gradientUnits="userSpaceOnUse">
<stop stop-color="#D6DCE8"/>
<stop offset="1" stop-color="#F9FAFB"/>
</linearGradient>
<linearGradient id="paint5_linear_11346_42115" x1="68.6862" y1="78.3033" x2="75.6056" y2="78.3033" gradientUnits="userSpaceOnUse">
<stop stop-color="#989FB0"/>
<stop offset="1" stop-color="#AAB2C5"/>
</linearGradient>
<linearGradient id="paint6_linear_11346_42115" x1="51.6622" y1="78.3033" x2="44.7438" y2="78.3033" gradientUnits="userSpaceOnUse">
<stop stop-color="#989FB0"/>
<stop offset="1" stop-color="#AAB2C5"/>
</linearGradient>
<linearGradient id="paint7_linear_11346_42115" x1="83.62" y1="91.5511" x2="101.43" y2="91.5511" gradientUnits="userSpaceOnUse">
<stop stop-color="#989FB0"/>
<stop offset="1" stop-color="#AAB2C5"/>
</linearGradient>
<linearGradient id="paint8_linear_11346_42115" x1="103.742" y1="13.3882" x2="105.925" y2="16.6044" gradientUnits="userSpaceOnUse">
<stop stop-color="#989FB0"/>
<stop offset="1" stop-color="#AAB2C5"/>
</linearGradient>
<linearGradient id="paint9_linear_11346_42115" x1="103.141" y1="21.8981" x2="98.4305" y2="25.0715" gradientUnits="userSpaceOnUse">
<stop stop-color="#D6DCE8"/>
<stop offset="1" stop-color="white"/>
</linearGradient>
<linearGradient id="paint10_linear_11346_42115" x1="97.8361" y1="14.0241" x2="93.1265" y2="17.1969" gradientUnits="userSpaceOnUse">
<stop stop-color="#D6DCE8"/>
<stop offset="1" stop-color="white"/>
</linearGradient>
<linearGradient id="paint11_linear_11346_42115" x1="95.779" y1="16.9376" x2="99.6833" y2="22.6886" gradientUnits="userSpaceOnUse">
<stop stop-color="#989FB0"/>
<stop offset="1" stop-color="#AAB2C5"/>
</linearGradient>
</defs>
</svg>
