<svg width="120" height="120" viewBox="0 0 120 120" fill="none" xmlns="http://www.w3.org/2000/svg">
<path d="M102.871 59.9293C102.871 71.001 98.6027 81.2311 92.0593 88.4632C84.0706 97.5613 72.3876 103.039 59.7612 103.039C47.1348 103.039 35.4121 97.601 27.2876 88.2745C20.731 80.933 16.6517 70.7481 16.6517 59.9293C16.6517 36.0632 36.0008 16.8198 59.7612 16.8198C83.5216 16.8198 102.871 36.05 102.871 59.9293Z" fill="#D6DCE8"/>
<path d="M92.0593 88.4614C84.0706 97.5595 72.3876 103.037 59.7612 103.037C47.1348 103.037 35.4121 97.5991 27.2876 88.2727C36.7102 84.1576 47.7046 81.7935 59.4574 81.7935C71.2102 81.7935 82.5404 84.2255 92.0593 88.4614Z" fill="url(#paint0_linear_11346_42114)"/>
<path d="M45.7272 87.4728C45.7272 88.2162 43.9253 88.8199 41.7008 88.8199C39.4763 88.8199 37.6744 88.2181 37.6744 87.4728C37.6744 86.7275 39.4763 86.1218 41.7008 86.1218C43.9253 86.1218 45.7272 86.7237 45.7272 87.4728Z" fill="#D6DCE8"/>
<path d="M64.248 84.5878C64.248 85.3312 62.4461 85.9349 60.2215 85.9349C57.997 85.9349 56.1951 85.333 56.1951 84.5878C56.1951 83.8425 57.997 83.2368 60.2215 83.2368C62.4461 83.2368 64.248 83.8387 64.248 84.5878Z" fill="#D6DCE8"/>
<path d="M86.6234 87.4179C86.6234 88.1915 84.748 88.8179 82.4329 88.8179C80.1178 88.8179 78.2423 88.1915 78.2423 87.4179C78.2423 86.6443 80.1178 86.0142 82.4329 86.0142C84.748 86.0142 86.6234 86.6406 86.6234 87.4179Z" fill="#D6DCE8"/>
<path d="M23.4517 23.0235C24.7706 23.0235 25.8385 21.9348 25.8366 20.6178C25.8366 19.299 24.7668 18.231 23.448 18.2329C22.1291 18.2329 21.0442 19.3027 21.0442 20.6216C21.0442 21.9405 22.1329 23.0254 23.4498 23.0254L23.4517 23.0235Z" fill="#D6DCE8"/>
<path d="M20.6328 28.1781C21.4725 28.1781 22.1517 27.4857 22.1517 26.6461C22.1517 25.8064 21.4706 25.1272 20.631 25.1272C19.7913 25.1272 19.1008 25.8083 19.1008 26.648C19.1008 27.4876 19.7932 28.1781 20.6328 28.1781Z" fill="#D6DCE8"/>
<path d="M99.3517 25.7066C98.2744 25.7066 97.4026 24.8179 97.4026 23.7406C97.4026 22.6632 98.2763 21.7915 99.3536 21.7915C100.431 21.7915 101.318 22.667 101.318 23.7424C101.318 24.8198 100.429 25.7066 99.3517 25.7066Z" fill="#D6DCE8"/>
<path d="M100.544 86.1575C99.4668 86.1575 98.5952 85.2688 98.5952 84.1915C98.5952 83.1141 99.4687 82.2424 100.546 82.2424C101.623 82.2424 102.51 83.1179 102.51 84.1934C102.51 85.2707 101.622 86.1575 100.544 86.1575Z" fill="#D6DCE8"/>
<path d="M87.1574 43.4273V85.1103H80.5423V43.4273C80.5423 42.899 80.9706 42.4707 81.4989 42.4707H86.2008C86.7291 42.4707 87.1574 42.899 87.1574 43.4273Z" fill="url(#paint1_linear_11346_42114)"/>
<path d="M90.6536 88.8707V86.5952C90.6536 85.7744 89.9876 85.1084 89.1668 85.1084H78.531C77.7102 85.1084 77.0442 85.7744 77.0442 86.5952V88.8707C77.0442 89.4593 77.5215 89.9386 78.1121 89.9386H89.5857C90.1744 89.9386 90.6536 89.4612 90.6536 88.8707Z" fill="url(#paint2_linear_11346_42114)"/>
<path d="M81.4159 42.4708H86.2895C88.0932 41.5727 89.3347 39.7142 89.3347 37.5595C89.3347 34.5293 86.8838 32.0784 83.8536 32.0784C80.8234 32.0784 78.3649 34.5293 78.3649 37.5595C78.3649 39.7142 79.6102 41.5727 81.4159 42.4708Z" fill="#E0E4ED"/>
<path d="M86.9895 37.5633C86.9895 39.2992 85.5819 40.7067 83.8461 40.7067C82.1102 40.7067 80.7102 39.2992 80.7102 37.5633C80.7102 35.8275 82.1178 34.4275 83.8461 34.4275C85.5744 34.4275 86.9895 35.8275 86.9895 37.5633Z" fill="url(#paint3_linear_11346_42114)"/>
<path d="M40.1631 43.4273V85.1103H33.548V43.4273C33.548 42.899 33.9763 42.4707 34.5046 42.4707H39.2065C39.7348 42.4707 40.1631 42.899 40.1631 43.4273Z" fill="url(#paint4_linear_11346_42114)"/>
<path d="M43.6593 88.8707V86.5952C43.6593 85.7744 42.9933 85.1084 42.1725 85.1084H31.5367C30.7159 85.1084 30.0499 85.7744 30.0499 86.5952V88.8707C30.0499 89.4593 30.5272 89.9386 31.1178 89.9386H42.5914C43.1801 89.9386 43.6593 89.4612 43.6593 88.8707Z" fill="url(#paint5_linear_11346_42114)"/>
<path d="M93.4951 48.0841V57.6954C93.4951 58.9388 92.4895 59.9501 91.2461 59.9501H27.8744C26.648 59.9275 25.6593 58.9275 25.6593 57.6954V48.0841C25.6593 46.835 26.6706 45.8293 27.914 45.8293H91.2461C91.314 45.8293 91.3819 45.835 91.4442 45.8407C92.597 45.9369 93.4951 46.9029 93.4951 48.0841Z" fill="url(#paint6_linear_11346_42114)"/>
<path d="M93.4951 67.0011V71.9426C93.4951 73.186 92.4895 74.1973 91.2461 74.1973H27.914C27.3574 74.1973 26.8461 73.9992 26.448 73.6633C25.965 73.2426 25.6574 72.6294 25.6574 71.9426V67.0011C25.6574 65.7577 26.6687 64.7463 27.9121 64.7463H91.2442C91.5235 64.7463 91.7895 64.7973 92.0348 64.8935C92.8876 65.2124 93.4951 66.035 93.4951 67.0011Z" fill="url(#paint7_linear_11346_42114)"/>
<path d="M34.4216 42.4708H39.2951C41.0989 41.5727 42.3404 39.7142 42.3404 37.5595C42.3404 34.5293 39.8895 32.0784 36.8593 32.0784C33.8291 32.0784 31.3706 34.5293 31.3706 37.5595C31.3706 39.7142 32.6159 41.5727 34.4216 42.4708Z" fill="#E0E4ED"/>
<path d="M37.4423 45.8293L27.8763 59.952C26.6499 59.9293 25.6612 58.9293 25.6612 57.6973V54.9143L31.814 45.8312H37.4442L37.4423 45.8293Z" fill="url(#paint8_linear_11346_42114)"/>
<path d="M38.1291 64.7463L31.7216 74.1992H27.9159C27.3593 74.1992 26.848 74.0011 26.4499 73.6652L32.4952 64.7463H38.131H38.1291Z" fill="url(#paint9_linear_11346_42114)"/>
<path d="M50.9461 45.8293L41.3782 59.952H35.7423L45.3102 45.8293H50.9461Z" fill="url(#paint10_linear_11346_42114)"/>
<path d="M51.6329 64.7463L45.2253 74.1992H39.5895L45.997 64.7463H51.6329Z" fill="url(#paint11_linear_11346_42114)"/>
<path d="M64.4499 45.8293L54.882 59.952H49.2461L58.814 45.8293H64.4499Z" fill="url(#paint12_linear_11346_42114)"/>
<path d="M65.131 64.7463L58.7235 74.1992H53.0933L59.5008 64.7463H65.131Z" fill="url(#paint13_linear_11346_42114)"/>
<path d="M77.948 45.8293L68.3801 59.952H62.7499L72.3178 45.8293H77.948Z" fill="url(#paint14_linear_11346_42114)"/>
<path d="M78.6348 64.7463L72.2272 74.1992H66.597L73.0046 64.7463H78.6348Z" fill="url(#paint15_linear_11346_42114)"/>
<path d="M91.4442 45.8407L81.8838 59.952H76.2537L85.8197 45.8293H91.2442C91.3122 45.8293 91.3801 45.835 91.4423 45.8407H91.4442Z" fill="url(#paint16_linear_11346_42114)"/>
<path d="M92.0367 64.8935L85.731 74.1992H80.0952L86.5027 64.7463H91.2461C91.5253 64.7463 91.7914 64.7973 92.0367 64.8935Z" fill="url(#paint17_linear_11346_42114)"/>
<path d="M93.4952 54.4238V57.6955C93.4952 58.9389 92.4895 59.9502 91.2461 59.9502H89.7518L93.4952 54.4219V54.4238Z" fill="url(#paint18_linear_11346_42114)"/>
<path d="M39.9951 37.5633C39.9951 39.2992 38.5876 40.7067 36.8517 40.7067C35.1159 40.7067 33.7159 39.2992 33.7159 37.5633C33.7159 35.8275 35.1234 34.4275 36.8517 34.4275C38.58 34.4275 39.9951 35.8275 39.9951 37.5633Z" fill="url(#paint19_linear_11346_42114)"/>
<defs>
<linearGradient id="paint0_linear_11346_42114" x1="59.2272" y1="100.795" x2="60.0367" y2="78.2652" gradientUnits="userSpaceOnUse">
<stop stop-color="#D6DCE8"/>
<stop offset="1" stop-color="white"/>
</linearGradient>
<linearGradient id="paint1_linear_11346_42114" x1="80.5423" y1="63.7896" x2="87.1574" y2="63.7896" gradientUnits="userSpaceOnUse">
<stop stop-color="#989FB0"/>
<stop offset="1" stop-color="#AAB2C5"/>
</linearGradient>
<linearGradient id="paint2_linear_11346_42114" x1="83.8744" y1="90.1971" x2="83.8253" y2="85.4292" gradientUnits="userSpaceOnUse">
<stop stop-color="#989FB0"/>
<stop offset="1" stop-color="#AAB2C5"/>
</linearGradient>
<linearGradient id="paint3_linear_11346_42114" x1="80.7102" y1="37.5671" x2="86.9895" y2="37.5671" gradientUnits="userSpaceOnUse">
<stop stop-color="#989FB0"/>
<stop offset="1" stop-color="#AAB2C5"/>
</linearGradient>
<linearGradient id="paint4_linear_11346_42114" x1="33.548" y1="63.7896" x2="40.1631" y2="63.7896" gradientUnits="userSpaceOnUse">
<stop stop-color="#989FB0"/>
<stop offset="1" stop-color="#AAB2C5"/>
</linearGradient>
<linearGradient id="paint5_linear_11346_42114" x1="30.0499" y1="87.5235" x2="43.6593" y2="87.5235" gradientUnits="userSpaceOnUse">
<stop stop-color="#989FB0"/>
<stop offset="1" stop-color="#AAB2C5"/>
</linearGradient>
<linearGradient id="paint6_linear_11346_42114" x1="59.6178" y1="45.9407" x2="59.5499" y2="57.6765" gradientUnits="userSpaceOnUse">
<stop stop-color="#989FB0"/>
<stop offset="1" stop-color="#AAB2C5"/>
</linearGradient>
<linearGradient id="paint7_linear_11346_42114" x1="59.3499" y1="64.8199" x2="59.6499" y2="70.9633" gradientUnits="userSpaceOnUse">
<stop stop-color="#989FB0"/>
<stop offset="1" stop-color="#AAB2C5"/>
</linearGradient>
<linearGradient id="paint8_linear_11346_42114" x1="31.5838" y1="45.7859" x2="31.4801" y2="59.9784" gradientUnits="userSpaceOnUse">
<stop stop-color="#D6DCE8"/>
<stop offset="1" stop-color="white"/>
</linearGradient>
<linearGradient id="paint9_linear_11346_42114" x1="32.3216" y1="64.7029" x2="32.2518" y2="74.2312" gradientUnits="userSpaceOnUse">
<stop stop-color="#D6DCE8"/>
<stop offset="1" stop-color="white"/>
</linearGradient>
<linearGradient id="paint10_linear_11346_42114" x1="43.397" y1="45.7727" x2="43.2932" y2="60.0067" gradientUnits="userSpaceOnUse">
<stop stop-color="#D6DCE8"/>
<stop offset="1" stop-color="white"/>
</linearGradient>
<linearGradient id="paint11_linear_11346_42114" x1="45.6461" y1="64.7029" x2="45.5763" y2="74.2426" gradientUnits="userSpaceOnUse">
<stop stop-color="#D6DCE8"/>
<stop offset="1" stop-color="white"/>
</linearGradient>
<linearGradient id="paint12_linear_11346_42114" x1="56.9008" y1="45.7727" x2="56.7952" y2="60.0067" gradientUnits="userSpaceOnUse">
<stop stop-color="#D6DCE8"/>
<stop offset="1" stop-color="white"/>
</linearGradient>
<linearGradient id="paint13_linear_11346_42114" x1="59.1461" y1="64.7029" x2="59.0763" y2="74.2426" gradientUnits="userSpaceOnUse">
<stop stop-color="#D6DCE8"/>
<stop offset="1" stop-color="white"/>
</linearGradient>
<linearGradient id="paint14_linear_11346_42114" x1="70.4008" y1="45.7727" x2="70.297" y2="60.0067" gradientUnits="userSpaceOnUse">
<stop stop-color="#D6DCE8"/>
<stop offset="1" stop-color="white"/>
</linearGradient>
<linearGradient id="paint15_linear_11346_42114" x1="72.6499" y1="64.7029" x2="72.5801" y2="74.2426" gradientUnits="userSpaceOnUse">
<stop stop-color="#D6DCE8"/>
<stop offset="1" stop-color="white"/>
</linearGradient>
<linearGradient id="paint16_linear_11346_42114" x1="83.9008" y1="45.7746" x2="83.7971" y2="60.0067" gradientUnits="userSpaceOnUse">
<stop stop-color="#D6DCE8"/>
<stop offset="1" stop-color="white"/>
</linearGradient>
<linearGradient id="paint17_linear_11346_42114" x1="86.1008" y1="64.7086" x2="86.031" y2="74.2426" gradientUnits="userSpaceOnUse">
<stop stop-color="#D6DCE8"/>
<stop offset="1" stop-color="white"/>
</linearGradient>
<linearGradient id="paint18_linear_11346_42114" x1="91.6555" y1="54.4106" x2="91.6159" y2="59.9653" gradientUnits="userSpaceOnUse">
<stop stop-color="#D6DCE8"/>
<stop offset="1" stop-color="white"/>
</linearGradient>
<linearGradient id="paint19_linear_11346_42114" x1="33.7159" y1="37.5671" x2="39.9951" y2="37.5671" gradientUnits="userSpaceOnUse">
<stop stop-color="#989FB0"/>
<stop offset="1" stop-color="#AAB2C5"/>
</linearGradient>
</defs>
</svg>
