<svg width="120" height="120" viewBox="0 0 120 120" fill="none" xmlns="http://www.w3.org/2000/svg">
<path d="M13.5346 59.9863C13.5346 34.2284 34.3983 13.458 60.0183 13.458C85.6382 13.458 106.502 34.2131 106.502 59.9863C106.502 70.9201 102.732 80.9748 96.4204 88.9143C87.7112 99.9095 74.4156 106.516 60.0173 106.516C45.619 106.516 32.3062 99.8682 23.6075 88.9143C17.2956 80.9758 13.5336 70.921 13.5336 59.9863H13.5346Z" fill="#D6DCE8"/>
<path d="M18.9309 96.7839C19.4377 95.6648 18.9261 94.3401 17.8081 93.8329C16.6901 93.3257 15.3734 93.8223 14.8666 94.9414C14.3599 96.0605 14.8494 97.3939 15.9674 97.9001C17.0855 98.4073 18.4242 97.902 18.9309 96.7829V96.7839Z" fill="#D6DCE8"/>
<path d="M22.2158 101.162C22.5383 100.45 22.213 99.6063 21.5018 99.2835C20.7907 98.9607 19.9519 99.2768 19.6295 99.9896C19.307 100.701 19.6189 101.551 20.3301 101.873C21.0412 102.196 21.8934 101.874 22.2158 101.162V101.162Z" fill="#D6DCE8"/>
<path d="M101.123 19.392C101.922 18.4602 101.803 17.0443 100.872 16.2441C99.9414 15.4439 98.5384 15.5505 97.7389 16.4823C96.9395 17.4141 97.0355 18.831 97.9664 19.6322C98.8973 20.4324 100.324 20.3238 101.124 19.392H101.123Z" fill="#D6DCE8"/>
<path d="M103.05 24.5157C103.559 23.922 103.483 23.0219 102.891 22.5118C102.298 22.0027 101.405 22.0709 100.896 22.6636C100.388 23.2573 100.448 24.1583 101.041 24.6684C101.634 25.1775 102.542 25.1084 103.051 24.5157H103.05Z" fill="#D6DCE8"/>
<path d="M21.7351 23.8029C22.5345 22.8711 22.4155 21.4552 21.4846 20.655C20.5537 19.8548 19.1507 19.9614 18.3512 20.8932C17.5518 21.825 17.6478 23.2419 18.5787 24.0431C19.5096 24.8433 20.9366 24.7347 21.7361 23.8029H21.7351Z" fill="#D6DCE8"/>
<path d="M96.1852 36.5041V99.557C96.1852 103.403 93.0768 106.515 89.2342 106.515H32.0662C28.2236 106.515 25.1152 103.403 25.1152 99.557V20.4157C25.1152 16.5694 28.2236 13.458 32.0662 13.458H71.7236C72.0864 13.458 72.4424 13.4868 72.7908 13.5377C74.1344 13.7481 75.3983 14.3523 76.4146 15.2899L93.9328 31.3783C94.9789 32.3379 95.6977 33.5887 96.0029 34.9479C96.1267 35.457 96.1843 35.9729 96.1843 36.5041H96.1852Z" fill="url(#paint0_linear_11346_42186)"/>
<path d="M96.003 34.9488H76.1556C74.2976 34.9488 72.7909 33.4406 72.7909 31.5808V13.5386C74.1345 13.7489 75.3984 14.3532 76.4147 15.2907L93.9329 31.3791C94.979 32.3388 95.6978 33.5895 96.003 34.9488Z" fill="url(#paint1_linear_11346_42186)"/>
<path d="M62.4328 21.0452H37.9684C37.8237 21.0452 37.7064 21.1626 37.7064 21.3074V23.8463C37.7064 23.9912 37.8237 24.1086 37.9684 24.1086H62.4328C62.5775 24.1086 62.6948 23.9912 62.6948 23.8463V21.3074C62.6948 21.1626 62.5775 21.0452 62.4328 21.0452Z" fill="#E0E4ED"/>
<path d="M52.4261 28.3074H37.9684C37.8237 28.3074 37.7064 28.4248 37.7064 28.5696V31.1085C37.7064 31.2534 37.8237 31.3708 37.9684 31.3708H52.4261C52.5708 31.3708 52.6881 31.2534 52.6881 31.1085V28.5696C52.6881 28.4248 52.5708 28.3074 52.4261 28.3074Z" fill="#E0E4ED"/>
<path d="M67.8138 92.7656H38.2332C37.9422 92.7656 37.7064 93.0017 37.7064 93.293V95.3401C37.7064 95.6313 37.9422 95.8674 38.2332 95.8674H67.8138C68.1048 95.8674 68.3407 95.6313 68.3407 95.3401V93.293C68.3407 93.0017 68.1048 92.7656 67.8138 92.7656Z" fill="#E0E4ED"/>
<path d="M74.3292 73.2526C67.4549 80.1277 56.3148 80.1277 49.4462 73.2526C42.572 66.3717 42.572 55.2267 49.4462 48.3458C56.3148 41.4707 67.4549 41.4707 74.3292 48.3458C81.1977 55.2267 81.1977 66.3717 74.3292 73.2526Z" fill="url(#paint2_linear_11346_42186)"/>
<path d="M45.811 44.707C36.9319 53.5946 36.9319 68.0019 45.811 76.8895C54.6901 85.7771 69.0835 85.7771 77.9626 76.8895C86.8417 68.0019 86.8417 53.5946 77.9626 44.707C69.0835 35.8194 54.6901 35.8194 45.811 44.707ZM73.4991 72.4217C67.0845 78.8424 56.6881 78.8424 50.2745 72.4217C43.8599 66.0009 43.8599 55.5955 50.2745 49.1748C56.6891 42.754 67.0845 42.754 73.4991 49.1748C79.9137 55.5955 79.9137 66.0019 73.4991 72.4217Z" fill="url(#paint3_linear_11346_42186)"/>
<path d="M84.9376 79.5649L80.6381 83.8684L75.6631 78.8953C77.3186 77.6446 78.808 76.1326 79.9702 74.5918L84.9385 79.5649H84.9376Z" fill="url(#paint4_linear_11346_42186)"/>
<path d="M88.1602 78.8347L97.7831 88.4668C100.062 90.7483 100.062 94.4485 97.7831 96.73C95.5038 99.0115 91.8071 99.0115 89.5278 96.73L79.905 87.0979C79.2188 86.4111 79.2188 85.2968 79.905 84.6099L85.6746 78.8347C86.3608 78.1479 87.4741 78.1479 88.1602 78.8347Z" fill="url(#paint5_linear_11346_42186)"/>
<path d="M63.9492 64.7549C63.548 64.7549 63.2227 64.4293 63.2227 64.0278C63.2227 62.4159 60.7879 62.4159 60.7879 64.0278C60.7879 64.4293 60.4626 64.7549 60.0614 64.7549C59.6603 64.7549 59.335 64.4293 59.335 64.0278C59.335 60.4908 64.6756 60.4946 64.6756 64.0278C64.6756 64.4293 64.3503 64.7549 63.9492 64.7549Z" fill="#AAB2C5"/>
<path d="M70.1363 58.5789H67.1219C66.7207 58.5789 66.3954 58.2532 66.3954 57.8517C66.3954 57.4502 66.7198 57.1245 67.1219 57.1245H70.1363C70.5374 57.1245 70.8628 57.4502 70.8628 57.8517C70.8628 58.2532 70.5384 58.5789 70.1363 58.5789Z" fill="#AAB2C5"/>
<path d="M56.8867 58.5789H53.8733C53.4721 58.5789 53.1468 58.2532 53.1468 57.8517C53.1468 57.4502 53.4721 57.1245 53.8733 57.1245H56.8867C57.2879 57.1245 57.6132 57.4502 57.6132 57.8517C57.6132 58.2532 57.2879 58.5789 56.8867 58.5789Z" fill="#AAB2C5"/>
<path d="M81.0288 40.7551C81.0288 41.3469 80.5489 41.8281 79.9568 41.8281C79.3647 41.8281 78.88 41.3469 78.88 40.7551C78.88 40.1634 79.3599 39.6821 79.9568 39.6821C80.5537 39.6821 81.0288 40.1634 81.0288 40.7551Z" fill="#989FB0"/>
<path d="M84.7515 40.7551C84.7515 41.3469 84.2716 41.8281 83.6795 41.8281C83.0874 41.8281 82.6027 41.3469 82.6027 40.7551C82.6027 40.1634 83.0826 39.6821 83.6795 39.6821C84.2764 39.6821 84.7515 40.1634 84.7515 40.7551Z" fill="#989FB0"/>
<path d="M88.4741 40.7551C88.4741 41.3469 87.9943 41.8281 87.4022 41.8281C86.81 41.8281 86.3254 41.3469 86.3254 40.7551C86.3254 40.1634 86.8052 39.6821 87.4022 39.6821C87.9991 39.6821 88.4741 40.1634 88.4741 40.7551Z" fill="#989FB0"/>
<defs>
<linearGradient id="paint0_linear_11346_42186" x1="60.6502" y1="13.458" x2="60.6502" y2="106.515" gradientUnits="userSpaceOnUse">
<stop stop-color="#F3F4F7"/>
<stop offset="0.2" stop-color="white"/>
<stop offset="0.8" stop-color="white"/>
<stop offset="1" stop-color="#F3F4F7"/>
</linearGradient>
<linearGradient id="paint1_linear_11346_42186" x1="72.7909" y1="24.2437" x2="96.003" y2="24.2437" gradientUnits="userSpaceOnUse">
<stop stop-color="#D6DCE8"/>
<stop offset="1" stop-color="white"/>
</linearGradient>
<linearGradient id="paint2_linear_11346_42186" x1="44.2908" y1="60.7992" x2="79.4808" y2="60.7992" gradientUnits="userSpaceOnUse">
<stop stop-color="#D6DCE8"/>
<stop offset="1" stop-color="white"/>
</linearGradient>
<linearGradient id="paint3_linear_11346_42186" x1="39.1507" y1="60.7982" x2="84.6219" y2="60.7982" gradientUnits="userSpaceOnUse">
<stop stop-color="#989FB0"/>
<stop offset="1" stop-color="#AAB2C5"/>
</linearGradient>
<linearGradient id="paint4_linear_11346_42186" x1="75.6631" y1="79.2306" x2="84.9376" y2="79.2306" gradientUnits="userSpaceOnUse">
<stop stop-color="#989FB0"/>
<stop offset="1" stop-color="#AAB2C5"/>
</linearGradient>
<linearGradient id="paint5_linear_11346_42186" x1="79.3906" y1="88.3803" x2="99.4933" y2="88.3803" gradientUnits="userSpaceOnUse">
<stop stop-color="#989FB0"/>
<stop offset="1" stop-color="#AAB2C5"/>
</linearGradient>
</defs>
</svg>
